<svg width="64" height="64" viewBox="0 0 64 64" fill="none" xmlns="http://www.w3.org/2000/svg"><g clip-path="url(#a)"><g clip-path="url(#b)"><path d="M29.498.252c-.152.03-.296.09-.422.18 0 0-11.686 8.035-27.065 12.328a1.069 1.069 0 0 0-.765 1.184L4.368 36.16c1.913 13.61 10.498 20.635 18.475 24.092 7.977 3.457 15.46 3.507 15.46 3.507.106.001.212-.014.314-.044 0 0 7.18-2.111 13.894-7.633 6.716-5.522 13.032-14.641 11.12-28.25L60.507 5.614a1.069 1.069 0 0 0-1.062-.928C43.48 4.8 30.031.297 30.031.297a1.069 1.069 0 0 0-.533-.045Z" fill="#FF6C54"/><path d="M31.323 12.95c-10.508 1.477-17.845 11.213-16.368 21.721C16.43 45.18 26.169 52.526 36.677 51.05c10.508-1.476 17.843-11.223 16.367-21.731C51.567 18.81 41.83 11.473 31.323 12.95Z" fill="#fff"/><path d="M29.233 21.88a1.07 1.07 0 0 0-.807 1.188l.744 5.297-5.287.743a1.069 1.069 0 0 0-.914 1.204l.892 6.351a1.069 1.069 0 0 0 1.211.905l5.287-.743.745 5.297a1.07 1.07 0 0 0 1.212.905l6.342-.891a1.07 1.07 0 0 0 .914-1.204l-.745-5.297 5.29-.743a1.068 1.068 0 0 0 .914-1.204l-.893-6.352a1.069 1.069 0 0 0-1.21-.904l-5.29.743-.744-5.297a1.069 1.069 0 0 0-1.21-.905l-6.342.891a1.064 1.064 0 0 0-.11.015Z" fill="#F6B93B"/></g></g><defs><clipPath id="a"><path fill="#fff" d="M0 0h64v64H0z"/></clipPath><clipPath id="b"><path fill="#fff" transform="rotate(-8 18.39 34.507)" d="M0 0h68.394v68.394H0z"/></clipPath></defs></svg>