<svg width="72" height="71" viewBox="0 0 72 71" fill="none" xmlns="http://www.w3.org/2000/svg"><g clip-path="url(#a)"><path d="M27.591 48.3a1.13 1.13 0 0 0-1.471.622l-6.074 15.033c-.1.25.106.515.373.48l5.273-.689a.354.354 0 0 1 .328.137l3.05 4.024a.352.352 0 0 0 .606-.08l6.068-15.017a1.13 1.13 0 0 0-.627-1.469l-7.526-3.04Zm20.145-2.83a1.13 1.13 0 0 1 1.586.191l9.982 12.776a.352.352 0 0 1-.226.565l-5.259.791a.353.353 0 0 0-.277.222l-1.822 4.708a.352.352 0 0 1-.606.091l-9.971-12.763a1.13 1.13 0 0 1 .197-1.584l6.396-4.998Z" fill="#AA429E"/><path d="M60.196 24.728c-.743-.453-1.865-1.139-2.04-1.552-.196-.464.086-1.74.291-2.671.398-1.805.85-3.852-.34-5.372-1.204-1.538-3.316-1.591-5.18-1.639-.888-.022-2.23-.056-2.612-.345-.382-.288-.785-1.568-1.051-2.415-.56-1.779-1.193-3.794-3.004-4.528-1.788-.725-3.63.274-5.257 1.154-.838.454-1.987 1.076-2.487 1.016-.445-.055-1.414-.944-2.055-1.533-1.387-1.274-2.96-2.72-4.932-2.442-1.972.277-3.085 2.1-4.068 3.708-.454.742-1.14 1.864-1.552 2.039-.465.196-1.74-.085-2.672-.291-1.805-.398-3.851-.85-5.371.34-1.539 1.204-1.592 3.316-1.64 5.18-.022.888-.056 2.23-.344 2.612-.288.382-1.569.785-2.416 1.051-1.779.56-3.794 1.193-4.528 3.004-.724 1.789.274 3.631 1.154 5.257.455.838 1.077 1.988 1.016 2.487-.055.446-.944 1.414-1.532 2.055-1.275 1.387-2.72 2.96-2.443 4.932.277 1.972 2.1 3.086 3.708 4.069.742.453 1.864 1.139 2.04 1.552.196.464-.086 1.74-.292 2.671-.398 1.805-.85 3.852.34 5.371 1.204 1.539 3.316 1.592 5.18 1.64.888.022 2.23.056 2.612.344.383.288.785 1.569 1.052 2.416.559 1.779 1.193 3.794 3.003 4.528 1.789.725 3.631-.274 5.257-1.154.839-.455 1.989-1.076 2.488-1.016.445.055 1.413.944 2.054 1.532 1.388 1.275 2.961 2.72 4.933 2.443 1.971-.277 3.085-2.1 4.068-3.708.453-.742 1.139-1.864 1.552-2.04.465-.195 1.74.086 2.672.292 1.805.398 3.85.85 5.37-.34 1.54-1.204 1.593-3.316 1.64-5.18.022-.888.056-2.23.345-2.612.288-.382 1.568-.785 2.415-1.051 1.78-.56 3.795-1.193 4.528-3.004.725-1.789-.273-3.631-1.154-5.257-.454-.839-1.076-1.988-1.016-2.487.055-.446.945-1.414 1.533-2.055 1.274-1.387 2.72-2.96 2.443-4.932-.278-1.972-2.1-3.086-3.709-4.069Z" fill="#FF6C54"/><path d="M51.097 44.525c6.473-8.59 4.757-20.802-3.834-27.276-8.59-6.473-20.802-4.757-27.276 3.834-6.473 8.59-4.757 20.802 3.834 27.275 8.59 6.474 20.802 4.758 27.276-3.833Z" fill="#fff"/><path d="M36.473 38.12a2.669 2.669 0 0 1-3.738.525l-4.287-3.23a2.542 2.542 0 0 1 3.06-4.06l2.359 1.777 4.661-6.187a2.542 2.542 0 0 1 4.06 3.06l-6.115 8.114Z" fill="#F6B93B"/></g><defs><clipPath id="a"><path fill="#fff" transform="rotate(-8 62.898 .803)" d="M0 0h62.727v62.727H0z"/></clipPath></defs></svg>