<svg width="74" height="74" viewBox="0 0 74 74" fill="none" xmlns="http://www.w3.org/2000/svg"><g clip-path="url(#a)"><path d="M49.795 32.71 33.674 13.333l-10.156 23.07-15.512-8.801 10.143 32.244 43.269-6.081.863-33.791-12.486 12.735Z" fill="#F6B93B"/><path d="M62.016 28.183a5.75 5.75 0 1 0-1.6-11.388 5.75 5.75 0 0 0 1.6 11.388Zm-27.138-6.285a6.75 6.75 0 1 0-1.88-13.368 6.75 6.75 0 0 0 1.88 13.368ZM10.522 35.42a5.75 5.75 0 1 0-1.6-11.388 5.75 5.75 0 0 0 1.6 11.388Z" fill="#FF6C54"/><path d="m35.063 34.462-2.848 8.479a1.754 1.754 0 0 0 .218 1.55l5.075 7.366a1.748 1.748 0 0 0 3.1-.436l2.847-8.479a1.753 1.753 0 0 0-.218-1.55l-5.075-7.366a1.748 1.748 0 0 0-3.1.436ZM24.06 52.704a1.749 1.749 0 0 1-1.977-1.49l-.557-3.96a1.75 1.75 0 1 1 3.466-.488l.557 3.961a1.749 1.749 0 0 1-1.49 1.977Zm29.708-4.176a1.749 1.749 0 0 1-1.977-1.489l-.557-3.961a1.75 1.75 0 1 1 3.466-.487l.557 3.96a1.749 1.749 0 0 1-1.49 1.977Z" fill="#fff"/><path d="m61.782 53.461-44.067 6.193a4.5 4.5 0 1 0 1.253 8.913l44.067-6.194a4.5 4.5 0 1 0-1.253-8.912Z" fill="#FF6C54"/></g><defs><clipPath id="a"><path fill="#fff" transform="rotate(-8 70.251 -1.252)" d="M0 0h64v64H0z"/></clipPath></defs></svg>