<svg width="60" height="56" viewBox="0 0 60 56" fill="none" xmlns="http://www.w3.org/2000/svg"><path d="M3.303 7.011 49.877.466A3.82 3.82 0 0 1 54.2 3.724l4.841 34.443a3.82 3.82 0 0 1-3.258 4.324L9.21 49.036a3.82 3.82 0 0 1-4.324-3.258L.046 11.335A3.82 3.82 0 0 1 3.302 7.01Z" fill="#FF6C54"/><path d="M12.194 9.82c-1.673.234-2.009 1.466-1.878 2.401.327 2.323-.49 3.522-3.019 3.877-1.236.174-1.891 1.158-1.711 2.438L8.31 37.93c.18 1.28 1.081 2.046 2.317 1.872 2.529-.355 3.645.572 3.971 2.895.132.934.795 2.026 2.467 1.79l29.911-4.203c1.673-.235 2.01-1.467 1.878-2.401-.327-2.324.49-3.522 3.019-3.878 1.236-.173 1.891-1.157 1.711-2.438L50.86 12.173c-.18-1.28-1.08-2.045-2.317-1.872-2.529.356-3.645-.571-3.971-2.894-.132-.935-.795-2.026-2.467-1.791L12.194 9.819Z" fill="#fff"/><path fill-rule="evenodd" clip-rule="evenodd" d="m12.03 13.438.06.434.868-.122-.061-.433-.867.121Zm2.167-.304.06.433.902-.127-.06-.433-.902.127Zm2.201-.31.061.434.867-.122-.06-.433-.868.122Zm2.166-.304.061.433.867-.121-.06-.434-.868.122Zm2.166-.304.061.433.867-.122-.061-.433-.867.122Zm2.167-.305.06.433.868-.121-.061-.434-.867.122Zm2.166-.304.06.433.867-.122-.06-.433-.867.122Zm2.166-.305.06.434.867-.122-.06-.433-.867.121Zm2.167-.304.06.433.867-.122-.06-.433-.867.122Zm2.165-.304.061.433.867-.122-.06-.433-.868.122Zm2.166-.305.061.433.867-.121-.06-.434-.867.122Zm2.167-.304.061.433.867-.122-.061-.433-.867.122Zm2.166-.305.061.433.867-.121-.061-.434-.867.122Zm2.166-.304.061.433.867-.122-.061-.433-.867.122Zm2.167-.305.06.433.867-.121-.06-.434-.867.122Z" fill="#EBEDF2"/><path d="M21.627 16.364a.437.437 0 1 0 .122.867l13.864-1.948a.439.439 0 0 0-.122-.867l-13.864 1.948Zm19.08 1.296a.437.437 0 1 0 .122.866l3.509-.493a.439.439 0 0 0-.122-.867l-3.51.493Zm-27.359 3.845a.438.438 0 0 0 .121.866l24.002-3.373a.438.438 0 0 0-.121-.867l-24.002 3.374Zm6.435 3.293a.437.437 0 0 0 .122.866l25.011-3.515a.439.439 0 0 0-.121-.867l-25.012 3.516Zm-5.857.822a.438.438 0 0 0 .122.867l2.933-.412a.437.437 0 1 0-.122-.867l-2.933.412Z" fill="#565656"/><path d="m24.369 35.087 2.263 16.107c.266 1.89 2.192 2.357 3.647.871l2.705-2.834 3.38 1.979c1.809 1.027 3.532.048 3.266-1.843l-2.264-16.106-12.997 1.826Z" fill="#AA429E"/><path fill-rule="evenodd" clip-rule="evenodd" d="m15.85 40.624.062.434.866-.122-.06-.433-.867.121Zm2.168-.304.06.433.902-.127-.061-.433-.901.127Zm2.201-.31.061.434.867-.122-.061-.433-.867.122Zm2.166-.304.061.433.867-.121-.061-.434-.867.122Zm17.33-2.435.061.433.867-.122-.061-.433-.867.122Zm2.166-.305.06.434.867-.122-.06-.434-.867.122Zm2.166-.304.06.433.867-.122-.06-.433-.867.122Zm2.167-.305.06.434.867-.122-.06-.433-.867.121Z" fill="#EBEDF2"/><path d="M38.638 35.238a7.547 7.547 0 1 1-14.947 2.1 7.547 7.547 0 0 1 14.947-2.1Z" fill="#F6B93B"/><path d="M33.801 35.917a2.663 2.663 0 1 1-5.273.742 2.663 2.663 0 0 1 5.273-.742Z" fill="#FF6C54"/></svg>