<svg width="72" height="70" viewBox="0 0 72 70" fill="none" xmlns="http://www.w3.org/2000/svg"><g clip-path="url(#a)"><path d="M19.88 29.552c-.4.228-.66.233-1.492.35-6.135.862-11.912-3.321-12.833-9.446-.906-6.022 3.174-11.918 9.672-12.831l.706.532-.113.015.364 2.589-.435.577c-3.991.561-6.91 4.133-6.538 8.13.398 4.284 4.3 7.332 8.513 6.74l.772-.108a17.22 17.22 0 0 0 1.384 3.452Z" fill="#FCBE29"/><path d="M61.257 12.627c.803 6.142-3.598 11.755-9.732 12.617-.833.117-1.085.185-1.531.075.256-1.197.386-2.436.379-3.7l.66-.092c4.074-.573 7.02-4.287 6.51-8.37-.518-4.156-4.351-7.081-8.486-6.5l-.705-.532-.348-2.476.532-.706c6.181-.868 11.91 3.484 12.721 9.684Z" fill="#FE9022"/><path d="M36.407 37.896a22.101 22.101 0 0 1-5.67.075l1.296 9.216 11.14-1.566-1.295-9.215a22.103 22.103 0 0 1-5.471 1.49Z" fill="#FCBE29"/><path d="m36.409 37.907 1.214 8.642 5.57-.783-1.315-9.36a21.787 21.787 0 0 1-5.47 1.502Z" fill="#FE9022"/><path d="m48.795 44.31-22.28 3.131a1.876 1.876 0 0 0-1.597 2.118l.87 6.19 25.995-3.654-.87-6.19a1.876 1.876 0 0 0-2.118-1.595Z" fill="#FF6C54"/><path d="M48.672 44.327 37.53 45.893l1.13 8.046 12.998-1.827-.87-6.189a1.876 1.876 0 0 0-2.117-1.596Z" fill="#E9533A"/><path d="m58.853 61.89-37.135 5.218a1.875 1.875 0 0 1-2.117-1.596l-.54-3.837a5.631 5.631 0 0 1 4.788-6.353l29.708-4.175a5.631 5.631 0 0 1 6.353 4.787l.54 3.838a1.875 1.875 0 0 1-1.597 2.117Z" fill="#F6B93B"/><path d="m53.42 51.166-14.855 2.088 1.584 11.264 18.567-2.61a1.876 1.876 0 0 0 1.596-2.117l-.54-3.837a5.632 5.632 0 0 0-6.352-4.788Z" fill="#FE9022"/><path d="M36.54 38.837c-9.215 1.295-17.801-5.405-19.14-14.936l-2.286-16.26 33.422-4.697 2.285 16.26c1.34 9.53-5.067 18.338-14.282 19.633Z" fill="#FED941"/><path d="m31.825 5.292 4.714 33.545a16.281 16.281 0 0 0 5.432-1.77c6.15-3.288 9.906-10.35 8.85-17.863l-2.285-16.26-16.711 2.348Z" fill="#FCBE29"/><path d="M32.261 9.442c-6.304.886-10.706 6.727-9.82 13.03.886 6.305 6.728 10.713 13.032 9.827 6.304-.886 10.705-6.734 9.82-13.038-.887-6.304-6.728-10.705-13.032-9.82Z" fill="#fff"/><path d="M35.838 26.515a2.669 2.669 0 0 1-3.738.526l-4.287-3.23a2.542 2.542 0 0 1 3.06-4.06l2.358 1.777 4.662-6.187a2.542 2.542 0 0 1 4.06 3.06l-6.115 8.114Z" fill="#FF6C54"/></g><defs><clipPath id="a"><path fill="#fff" transform="rotate(-8 69.752 3.899)" d="M0 0h64v60H0z"/></clipPath></defs></svg>