<svg width="24" height="24" viewBox="0 0 24 24" fill="none" xmlns="http://www.w3.org/2000/svg"><path d="M12 6c2.58 0 5.16 1.426 7.553 4.277l.367.437a2 2 0 0 1 0 2.572l-.367.437c-.51.607-1.028 1.15-1.553 1.628M8.5 7c-1.426.702-2.711 1.678-4.053 3.277l-.367.437a2 2 0 0 0 0 2.572l.367.437c3.454 4.115 7.296 5.26 10.966 3.437L8.5 7Z" stroke="#AA429E" stroke-width="1.75" stroke-linecap="round"/><path d="m6 3 12 18M10.341 9.5A3 3 0 0 0 12 15c.658 0 1.005-.14 1.5-.5l-3.159-5ZM14 9.764v0c-.115-.103-.244.025-.16.154l.775 1.173c.091.137.27.065.214-.091v0A3.004 3.004 0 0 0 14 9.764Z" stroke="#AA429E" stroke-width="1.75" stroke-linecap="round"/></svg>