<svg width="40" height="40" viewBox="0 0 40 40" fill="none" xmlns="http://www.w3.org/2000/svg"><circle cx="20" cy="20" r="20" fill="#0966DD"/><path fill-rule="evenodd" clip-rule="evenodd" d="M17.78 30c0-.067.008-.135.008-.204v-8.991H14v-3.91h3.788v-.268c0-.847-.008-1.694.007-2.541a7.595 7.595 0 0 1 .457-2.681 3.681 3.681 0 0 1 1.178-1.592 3.488 3.488 0 0 1 1.808-.719c.217-.034.442-.064.66-.094h3.487c0 .24-.008.477-.008.716-.007.984 0 1.968 0 2.955v.245c-.082.005-.157.01-.224.01h-1.86a1.847 1.847 0 0 0-.983.278 1.55 1.55 0 0 0-.532.57 1.616 1.616 0 0 0-.195.767c-.03.77-.008 1.542-.008 2.34H26c-.21 1.321-.42 2.606-.63 3.91h-3.788c-.007.082-.015.147-.015.211v8.835c.002.055.007.109.015.162H17.78V30Z" fill="#fff"/></svg>