<svg width="21" height="21" viewBox="0 0 21 21" fill="none" xmlns="http://www.w3.org/2000/svg"><g clip-path="url(#a)"><path d="M18.146 20.5H2.854a1.19 1.19 0 0 1-1.19-1.19v-1.654l17.671-3.21v4.865a1.19 1.19 0 0 1-1.189 1.19Z" fill="#D9D9D9"/><path d="M14.91 19.31H2.857a1.191 1.191 0 0 1-1.191-1.19V3.346a1.19 1.19 0 0 1 1.19-1.191h15.29c.657 0 1.19.533 1.19 1.191V18.12c0 .781-.492 1.192-1.227 1.192h-3.197Z" fill="#EBEDF2"/><path d="M19.335 3.345v3.06H1.665v-3.06a1.19 1.19 0 0 1 1.19-1.189h15.291c.657 0 1.19.533 1.19 1.19Z" fill="#AA429E"/><path d="M5.031 4.232h-.583a.905.905 0 0 1-.905-.904V2.156h.595v1.172c0 .17.139.31.31.31.164 0 .747.594.583.594Zm10.801 0h-.583a.905.905 0 0 1-.904-.904V2.156h.594v1.172c0 .17.14.31.31.31.164 0 .583.43.583.594Z" fill="#701065"/><path d="M5.477 2.156v-.752a.31.31 0 0 0-.31-.31h-.136a.31.31 0 0 0-.31.31v1.924c0 .17.14.31.31.31a.297.297 0 0 1 0 .594.905.905 0 0 1-.904-.904V1.404c0-.498.406-.904.904-.904h.137c.498 0 .904.406.904.904v.752h-.595Zm10.801 0v-.752a.31.31 0 0 0-.31-.31h-.136a.31.31 0 0 0-.31.31v1.924c0 .17.14.31.31.31a.297.297 0 0 1 0 .594.905.905 0 0 1-.904-.904V1.404c0-.498.406-.904.904-.904h.137c.498 0 .904.406.904.904v.752h-.595Z" fill="#554E56"/><path d="m10.76 9.405.957 1.94a.29.29 0 0 0 .22.158l2.139.31a.29.29 0 0 1 .161.496l-1.549 1.51a.29.29 0 0 0-.083.257l.365 2.13a.29.29 0 0 1-.42.307l-1.915-1.006a.29.29 0 0 0-.27 0L8.45 16.513a.29.29 0 0 1-.421-.306l.365-2.131a.29.29 0 0 0-.083-.257l-1.549-1.51a.29.29 0 0 1 .161-.495l2.14-.311a.29.29 0 0 0 .219-.159l.957-1.939a.29.29 0 0 1 .52 0Z" fill="#FF6C54"/></g><defs><clipPath id="a"><path fill="#fff" transform="translate(.5 .5)" d="M0 0h20v20H0z"/></clipPath></defs></svg>