<svg width="40" height="40" viewBox="0 0 40 40" fill="none" xmlns="http://www.w3.org/2000/svg"><circle cx="20" cy="20" r="20" fill="url(#a)"/><path d="M24.444 12.222c1.89 0 3.334 1.445 3.334 3.334v8.888c0 1.89-1.445 3.334-3.334 3.334h-8.888c-1.89 0-3.334-1.445-3.334-3.334v-8.888c0-1.89 1.445-3.334 3.334-3.334h8.888Zm0-2.222h-8.888C12.444 10 10 12.444 10 15.556v8.888C10 27.556 12.444 30 15.556 30h8.888C27.556 30 30 27.556 30 24.444v-8.888C30 12.444 27.556 10 24.444 10Z" fill="#fff"/><path d="M24.5 14c-.9 0-1.5.6-1.5 1.5s.6 1.5 1.5 1.5 1.5-.6 1.5-1.5-.6-1.5-1.5-1.5ZM20 18c1.1 0 2 .9 2 2s-.9 2-2 2-2-.9-2-2 .9-2 2-2Zm0-2c-2.2 0-4 1.8-4 4s1.8 4 4 4 4-1.8 4-4-1.8-4-4-4Z" fill="#fff"/><defs><linearGradient id="a" x1="34" y1="0" x2="8" y2="34.5" gradientUnits="userSpaceOnUse"><stop stop-color="#A244B4"/><stop offset=".542" stop-color="#EF4B5E"/><stop offset="1" stop-color="#FFD352"/></linearGradient></defs></svg>