<svg width="24" height="24" viewBox="0 0 24 24" fill="none" xmlns="http://www.w3.org/2000/svg"><path fill-rule="evenodd" clip-rule="evenodd" d="M12.852 5.498a.964.964 0 0 0-1.704 0L4.995 17.12a.964.964 0 0 0 .852 1.416h12.306a.964.964 0 0 0 .852-1.416L12.852 5.498Zm-3.03-.701c.926-1.749 3.43-1.749 4.356 0l6.152 11.622c.87 1.64-.32 3.617-2.177 3.617H5.847c-1.857 0-3.047-1.976-2.178-3.617L9.822 4.797Z" fill="#F90A0A"/><path fill-rule="evenodd" clip-rule="evenodd" d="M12 7.821a.75.75 0 0 1 .75.75v4.715a.75.75 0 0 1-1.5 0V8.57a.75.75 0 0 1 .75-.75Z" fill="#F90A0A"/><path d="M12.75 16.282a.75.75 0 1 1-1.5 0 .75.75 0 0 1 1.5 0Z" fill="#F90A0A"/></svg>