<svg width="16" height="17" viewBox="0 0 16 17" fill="none" xmlns="http://www.w3.org/2000/svg"><path d="M15.882 4.591v7.821c0 .97-.787 1.758-1.758 1.758H1.877a1.759 1.759 0 0 1-1.759-1.758v-7.82a1.757 1.757 0 0 1 1.76-1.76h12.246a1.757 1.757 0 0 1 1.758 1.76Z" fill="#AA429E"/><path d="m.639 13.659 5.158-5.157 1.335 1.334c.48.48 1.258.48 1.738 0l1.335-1.334 5.157 5.157c-.32.315-.755.511-1.239.511H1.877" fill="#F47FE7"/><path opacity=".2" d="M15.669 3.749 9.226 10.19a1.73 1.73 0 0 1-2.448.002L.333 3.747a1.757 1.757 0 0 1 1.544-.917h12.247c.666 0 1.246.37 1.545.919Z" fill="#000"/><path d="M15.365 3.341 8.87 9.835a1.227 1.227 0 0 1-1.737.001L5.798 8.501.64 3.341c.345-.332.753-.518 1.237-.511h12.247c.483 0 .92.196 1.24.511Z" fill="#F47FE7"/></svg>