<svg width="20" height="21" viewBox="0 0 20 21" fill="none" xmlns="http://www.w3.org/2000/svg"><g clip-path="url(#a)"><g clip-path="url(#b)"><path d="m10 4.5-.375 15h.75L10 4.5Z" fill="#DD5347"/><path d="M17.19 16.053c-1.306-.435-2.617.083-2.96.901-.228.55.44 1.363.753 1.546-.802 0-3.561 0-4.983-2.318 1.43-1.134 10-3.04 10-3.04-.752.361-3.466 1.787-2.81 2.91Z" fill="#DB392F"/><path d="M16.606 8.558c.105 1.043.897 1.184 1.48 1.21-.544.322-2.25 1.642-1.782 2.858.302.785 2.992.633 3.696.517 0 0-8.57 1.906-10 3.04C11.154 13.4 17.802 5.42 17.852 5.316c-.291.52-1.361 2.098-1.246 3.24Z" fill="#DD5347"/><path d="M11.132 4.433c.575.216 1.033-.188 1.3-.448-.323.53-1.288 3.14-.26 3.892.919.67 2.394-1.406 2.394-1.406.401 1.03 1.597.464 3.287-1.154-.05.103-6.7 8.083-7.853 10.865V1.5c.218 1.777.608 2.737 1.132 2.933Z" fill="#E06A5D"/><path d="M2.81 16.053c1.306-.435 2.617.083 2.96.901.229.55-.44 1.363-.753 1.546.802 0 3.562 0 4.983-2.318-1.43-1.134-10-3.04-10-3.04.752.361 3.466 1.787 2.81 2.91Z" fill="#DD5347"/><path d="M3.394 8.558c-.105 1.043-.897 1.184-1.48 1.21.544.322 2.25 1.642 1.782 2.858-.302.785-2.992.633-3.696.516 0 0 8.57 1.906 10 3.04C8.846 13.4 2.198 5.42 2.148 5.317c.291.52 1.361 2.098 1.246 3.24Z" fill="#E06A5D"/><path d="M8.868 4.433c-.575.216-1.033-.188-1.3-.448.323.53 1.288 3.14.26 3.892-.918.67-2.393-1.406-2.393-1.406-.401 1.03-1.597.464-3.287-1.154.05.103 6.698 8.083 7.852 10.865V1.5c-.218 1.777-.608 2.737-1.132 2.933Z" fill="#E28072"/></g></g><defs><clipPath id="a"><path fill="#fff" transform="translate(0 .5)" d="M0 0h20v20H0z"/></clipPath><clipPath id="b"><path fill="#fff" transform="translate(0 .5)" d="M0 0h20v20H0z"/></clipPath></defs></svg>