<svg width="14" height="18" viewBox="0 0 14 18" fill="none" xmlns="http://www.w3.org/2000/svg"><path fill-rule="evenodd" clip-rule="evenodd" d="M6.834 1.519a5.313 5.313 0 0 0-5.315 5.315c0 2.149.957 4.237 2.143 5.976 1.152 1.7 2.473 3.007 3.172 3.645.699-.638 2.02-1.944 3.172-3.645 1.186-1.739 2.143-3.827 2.143-5.976a5.313 5.313 0 0 0-5.315-5.315ZM0 6.834a6.834 6.834 0 0 1 13.668 0c0 2.582-1.14 4.966-2.406 6.834-1.272 1.868-2.723 3.288-3.456 3.956a1.445 1.445 0 0 1-1.944 0c-.733-.668-2.184-2.088-3.456-3.956C1.14 11.8 0 9.416 0 6.834Zm6.834-1.519c-.838 0-1.519.684-1.519 1.519 0 .835.68 1.519 1.519 1.519.838 0 1.519-.684 1.519-1.519 0-.835-.68-1.519-1.519-1.519ZM3.797 6.834a3.037 3.037 0 1 1 6.074 0 3.037 3.037 0 0 1-6.074 0Z" fill="#AA429E"/></svg>