<svg width="20" height="21" viewBox="0 0 20 21" fill="none" xmlns="http://www.w3.org/2000/svg"><g clip-path="url(#a)"><path fill-rule="evenodd" clip-rule="evenodd" d="M17.369 6.038c0-1.4-1.098-2.538-2.447-2.538-1.35 0-2.448 1.139-2.448 2.538 0 1.4 1.098 2.539 2.447 2.539h-.815c-1.8 0-3.263 1.518-3.263 3.384v4.693c0 .468.365.846.816.846h6.525c.451 0 .816-.378.816-.846V11.96c0-1.866-1.463-3.384-3.263-3.384h-.816c1.35 0 2.448-1.139 2.448-2.539Z" fill="#FF6C54"/><path d="M7.526 9.885c0-1.4-1.098-2.539-2.447-2.539-1.35 0-2.448 1.139-2.448 2.539 0 1.4 1.098 2.538 2.448 2.538 1.349 0 2.447-1.139 2.447-2.538Zm-1.632 2.538H4.263c-1.8 0-3.263 1.518-3.263 3.385v.846c0 .468.365.846.816.846H8.34c.451 0 .816-.378.816-.846v-.846c0-1.867-1.463-3.385-3.263-3.385Z" fill="#AA429E"/><path d="M5.079 7.346c1.349 0 2.447 1.139 2.447 2.539 0 1.4-1.098 2.538-2.447 2.538V7.346Zm12.29-1.308c0-1.372-1.056-2.494-2.369-2.537l-.079 5.076V17.5h3.263c.451 0 .816-.378.816-.846V11.96c0-1.866-1.463-3.384-3.263-3.384h-.816c1.35 0 2.448-1.139 2.448-2.539Zm-12.29 6.385h.815c1.8 0 3.263 1.518 3.263 3.385v.846c0 .468-.365.846-.816.846H5.08v-5.077Z" opacity=".1" fill-rule="evenodd" clip-rule="evenodd" fill="#0B1625"/></g><defs><clipPath id="a"><path fill="#fff" transform="translate(0 .5)" d="M0 0h20v20H0z"/></clipPath></defs></svg>