<svg width="16" height="16" viewBox="0 0 16 16" fill="none" xmlns="http://www.w3.org/2000/svg"><g clip-path="url(#a)"><path d="M11.129 15.548c-.773.147-1.73-.119-2.851-.793-1.303-.783-2.762-2.08-4.12-3.653-1.384-1.607-2.486-3.287-3.095-4.736-.953-2.251-.461-3.328.12-3.83L3.07.91A.87.87 0 0 1 4.289 1l2.094 2.436a.848.848 0 0 1 .206.629.856.856 0 0 1-.29.589L4.768 5.977l4.393 5.09 1.533-1.323a.836.836 0 0 1 .393-.189.87.87 0 0 1 .818.283l2.104 2.434a.89.89 0 0 1 .205.629.906.906 0 0 1-.298.59L12.03 15.12c-.254.22-.56.364-.901.43Z" fill="#FF6C54"/><path d="M14.09 7.133c-.056.01-.028.005-.087-.003a.335.335 0 0 1-.316-.36 5.471 5.471 0 0 0-1.308-3.968A5.468 5.468 0 0 0 8.654.925a.335.335 0 0 1-.317-.36.334.334 0 0 1 .37-.318 6.046 6.046 0 0 1 4.189 2.113 6.13 6.13 0 0 1 1.478 4.461.352.352 0 0 1-.284.312Zm-3.204-.24c-.055.01-.028.005-.085.007a.345.345 0 0 1-.318-.37 2.233 2.233 0 0 0-.538-1.624c-.393-.46-.93-.73-1.531-.777a.343.343 0 0 1-.317-.36.338.338 0 0 1 .37-.318 2.87 2.87 0 0 1 1.993 1.004c.513.59.763 1.353.71 2.126a.352.352 0 0 1-.284.312Zm1.606.114c-.056.011-.036.017-.094.009a.348.348 0 0 1-.319-.37 3.783 3.783 0 0 0-.922-2.791A3.777 3.777 0 0 0 8.53 2.532a.348.348 0 0 1-.318-.369.357.357 0 0 1 .369-.318 4.559 4.559 0 0 1 3.1 1.557 4.55 4.55 0 0 1 1.086 3.296.34.34 0 0 1-.275.31Z" fill="#BE4B50"/><path d="m2.814 1.129 3.232 3.746.253-.22a.856.856 0 0 0 .29-.59.848.848 0 0 0-.206-.628L4.288 1a.87.87 0 0 0-1.22-.09l-.254.22Zm8.272 8.426a.836.836 0 0 0-.394.19l-.254.22 3.222 3.747.254-.22a.906.906 0 0 0 .298-.591.891.891 0 0 0-.205-.629l-2.104-2.434a.87.87 0 0 0-.817-.283Z" fill="#E9533A"/></g><defs><clipPath id="a"><path fill="#fff" d="M0 0h16v16H0z"/></clipPath></defs></svg>