<svg width="18" height="16" viewBox="0 0 18 16" fill="none" xmlns="http://www.w3.org/2000/svg"><path fill-rule="evenodd" clip-rule="evenodd" d="M9 2a5.763 5.763 0 0 0-4.355 1.995.75.75 0 0 1-1.129-.99C4.859 1.475 6.816.5 9 .5c4.025 0 7.27 3.293 7.349 7.35l.365-.375a.75.75 0 0 1 1.072 1.05l-1.65 1.688a.757.757 0 0 1-.536.225.757.757 0 0 1-.536-.225l-1.65-1.688a.75.75 0 0 1 1.072-1.05l.362.368C14.768 4.588 12.165 2 9 2ZM2.4 5.563c.202 0 .395.082.536.225l1.65 1.687a.75.75 0 0 1-1.073 1.05l-.36-.367C3.231 11.413 5.834 14 9 14a5.763 5.763 0 0 0 4.355-1.995.75.75 0 0 1 1.129.99C13.141 14.525 11.184 15.5 9 15.5c-4.025 0-7.27-3.292-7.349-7.35l-.365.375a.75.75 0 0 1-1.072-1.05l1.65-1.687a.757.757 0 0 1 .536-.225Z" fill="#FF6C54"/></svg>