<svg width="20" height="21" viewBox="0 0 20 21" fill="none" xmlns="http://www.w3.org/2000/svg"><g clip-path="url(#a)"><path d="M15.62 11.387c-.156 3.71-2.633 6.074-5.635 7.113L10 .5c2.066 2.968 5.776 7.168 5.62 10.887Z" fill="#90AB28"/><path d="M4.38 11.387c.156 3.71 2.603 6.074 5.605 7.113L10 .5C7.933 3.468 4.223 7.668 4.38 11.387Z" fill="#A1BF2D"/><path d="m7.65 4.045 2.36 3.606v-.377l-2.36-3.23Zm5.583 1.579-3.223 4.502v-.434l3.223-4.068Zm-1.6-2.634L10.01 5.327v-.313l1.623-2.022ZM6.132 7.167l3.878 5.456v-.484L6.132 7.167Zm8.495 1.391-4.617 6.586v-.532l4.617-6.054ZM4.847 10.5l5.163 7.192v-.574L4.847 10.5Z" fill="#B2CB45"/><path d="m10 3.5-.375 17h.75L10 3.5Z" fill="#B2CB45"/></g><defs><clipPath id="a"><path fill="#fff" transform="translate(0 .5)" d="M0 0h20v20H0z"/></clipPath></defs></svg>