<svg width="17" height="17" viewBox="0 0 17 17" fill="none" xmlns="http://www.w3.org/2000/svg"><g clip-path="url(#a)"><path d="M16.024 10.189c1.157-5.201-3.4-9.926-8.75-9.019C4.367-.633.5 1.405.5 4.86c0 .805.222 1.557.607 2.206-1.075 5.213 3.519 9.87 8.866 8.9 3.78 1.999 7.956-1.987 6.05-5.777Zm-5.087 3.136c-1.404.578-3.714.581-5.112-.15-1.994-1.064-2.348-3.456-.628-3.456 1.296 0 .886 1.51 2.194 2.127.601.277 1.892.306 2.643-.2.741-.496.673-1.277.27-1.65-1.067-.985-4.122-.593-5.519-2.319-.607-.748-.721-2.069.025-3.026 1.3-1.673 5.115-1.775 6.755-.512 1.514 1.172 1.106 2.728-.117 2.728-1.47 0-.697-1.923-3.07-1.923-1.72 0-2.397 1.223-1.185 1.818 1.642.816 5.828.544 5.828 3.731-.004 1.327-.817 2.316-2.084 2.832Z" fill="#03A9F4"/></g><defs><clipPath id="a"><path fill="#fff" transform="translate(.5 .5)" d="M0 0h16v16H0z"/></clipPath></defs></svg>