<svg width="20" height="21" viewBox="0 0 20 21" fill="none" xmlns="http://www.w3.org/2000/svg"><g clip-path="url(#a)"><path d="M10.112 6.116A.603.603 0 0 1 9.755 6L7.818 4.582a.604.604 0 1 1 .714-.974l1.58 1.157 1.58-1.157a.604.604 0 0 1 .713.974L10.468 6a.603.603 0 0 1-.356.116ZM7.688 17.262a.604.604 0 0 1 .13-.844L9.755 15a.604.604 0 0 1 .713 0l1.937 1.418a.604.604 0 1 1-.713.974l-1.58-1.157-1.58 1.157a.613.613 0 0 1-.844-.13ZM6.278 8.33a.603.603 0 0 1-.28.25l-2.196.97a.604.604 0 0 1-.487-1.106l1.792-.79-.212-1.947a.604.604 0 0 1 1.2-.13l.26 2.386a.603.603 0 0 1-.077.367Zm8.465 7.628a.604.604 0 0 1-.665-.535l-.26-2.386a.604.604 0 0 1 .357-.618l2.196-.968a.604.604 0 0 1 .487 1.104l-1.792.79.212 1.947a.613.613 0 0 1-.535.666Zm-8.44-3.244a.603.603 0 0 1 .077.367l-.26 2.386a.604.604 0 1 1-1.2-.13l.212-1.947-1.792-.79a.604.604 0 0 1 .487-1.105l2.197.968c.12.053.216.142.279.25Zm10.838-3.518a.604.604 0 0 1-.795.309l-2.197-.968a.604.604 0 0 1-.356-.618l.26-2.386a.604.604 0 1 1 1.2.13L15.04 7.61l1.792.79c.41.204.39.613.308.796Z" fill="#73B7DD"/><path d="M10.112 6.116c.125 0 .25-.038.356-.116l1.305-.955V3.56a.59.59 0 0 0-.08.049l-1.581 1.157-1.559-1.141V5.12L9.755 6a.603.603 0 0 0 .357.116ZM9.756 15l-1.254.917v1.493a.858.858 0 0 0 .03-.018l1.58-1.157 1.58 1.157.03.02v-1.495L10.469 15a.604.604 0 0 0-.713 0ZM6.277 8.33a.603.603 0 0 0 .078-.367l-.166-1.528-1.295-.747.001.02.212 1.946-1.792.79a.608.608 0 0 0-.045.023l1.293.747 1.435-.633a.603.603 0 0 0 .28-.25Zm9.001 6.963-.212-1.947 1.753-.774-1.296-.747-1.348.594a.604.604 0 0 0-.357.618l.176 1.622 1.283.74a.755.755 0 0 0 0-.106Zm-8.975-2.579a.602.602 0 0 0-.28-.25l-1.377-.608-1.296.748 1.782.786-.212 1.947a.61.61 0 0 0-.002.08l1.29-.745.172-1.591a.603.603 0 0 0-.077-.367Zm7.847-4.177 1.521.67 1.276-.736a.744.744 0 0 0-.114-.07l-1.792-.79.203-1.874-1.295.748-.156 1.434a.604.604 0 0 0 .356.618Z" fill="#5E9CD3"/><path d="m17.55 14.156-6.23-3.597 6.23-3.598a.604.604 0 1 0-.603-1.046l-6.231 3.598V2.2a.604.604 0 0 0-1.208 0v7.313L3.175 5.857a.603.603 0 1 0-.604 1.045l6.334 3.657-6.334 3.656a.604.604 0 0 0-.22.825c.111.194.425.404.824.22l6.333-3.656V18.8a.604.604 0 1 0 1.208 0v-7.196l6.231 3.598c.407.228.713-.027.825-.221a.604.604 0 0 0-.221-.825Z" fill="#B3DBF4"/><path d="m13.517 12.466.626-.277-2.824-1.63 2.94-1.698-.742-.327.074-.68-2.876 1.66V6.125l-.603.442-.604-.442v3.387l-2.875-1.66.074.68-.743.328 2.94 1.698-2.824 1.63.627.277-.088.806 2.889-1.668v3.27l.604-.442.603.441v-3.269l2.89 1.668-.088-.806Z" fill="#94CBED"/><path d="M10.112 2.766a1.133 1.133 0 1 0 0-2.266 1.133 1.133 0 0 0 0 2.266Zm0 17.734a1.133 1.133 0 1 0 0-2.266 1.133 1.133 0 0 0 0 2.266ZM2.321 7.23a1.133 1.133 0 1 0 0-2.267 1.133 1.133 0 0 0 0 2.266Zm15.359 8.866a1.133 1.133 0 1 0 0-2.266 1.133 1.133 0 0 0 0 2.266Zm-15.359.059a1.133 1.133 0 1 0 0-2.266 1.133 1.133 0 0 0 0 2.266ZM17.68 7.288a1.133 1.133 0 1 0 0-2.266 1.133 1.133 0 0 0 0 2.266Zm-9.438 7.201a.848.848 0 0 1-.425-.116.837.837 0 0 1-.419-.825l.176-1.614-1.486-.656a.837.837 0 0 1-.505-.775c0-.34.193-.637.505-.775l1.486-.655-.176-1.615a.837.837 0 0 1 .419-.825.837.837 0 0 1 .924.05l1.31.96 1.31-.96a.837.837 0 0 1 .925-.05c.295.17.455.487.418.825l-.175 1.615 1.486.655a.837.837 0 0 1 .505.775.837.837 0 0 1-.505.775l-1.486.656.175 1.614a.837.837 0 0 1-.418.825.837.837 0 0 1-.924-.05l-1.31-.959-1.311.96a.843.843 0 0 1-.5.165Zm.001-7.367a.257.257 0 0 0-.124.034.24.24 0 0 0-.12.237l.199 1.834a.302.302 0 0 1-.178.31l-1.689.744a.24.24 0 0 0-.145.222c0 .038.01.164.145.223l1.689.744c.12.053.192.178.178.31l-.2 1.834a.24.24 0 0 0 .12.237.24.24 0 0 0 .266-.015l1.489-1.09a.301.301 0 0 1 .357 0l1.488 1.09a.24.24 0 0 0 .266.015.24.24 0 0 0 .12-.238l-.2-1.834a.302.302 0 0 1 .179-.309l1.688-.744a.24.24 0 0 0 .145-.223.24.24 0 0 0-.145-.222l-1.688-.745a.302.302 0 0 1-.178-.309l.2-1.834a.24.24 0 0 0-.121-.237.24.24 0 0 0-.266.014L10.23 8.26a.302.302 0 0 1-.357 0L8.384 7.17a.235.235 0 0 0-.14-.048Z" fill="#CAE7FC"/></g><defs><clipPath id="a"><path fill="#fff" transform="translate(0 .5)" d="M0 0h20v20H0z"/></clipPath></defs></svg>