<svg width="72" height="72" viewBox="0 0 72 72" fill="none" xmlns="http://www.w3.org/2000/svg"><path d="M9.085 59.644s-4.257 4.976-4.869 5.753c-.61.778-.166 3.112-.166 3.112l6.765-6.98s1.64-3.416-1.73-1.886Z" fill="#fff"/><path d="M54.786 3.517c-.995.006-1.915.223-2.673.764L14.587 46.755l7.073 11.16L64.672 18.79l3.465-4.548s-2.165-7.362-4.764-8.229c-1.949-.65-5.603-2.517-8.587-2.496Z" fill="#FF4E79"/><path d="M21.66 57.914s-.255-.687-.471-1.552a10.703 10.703 0 0 1-.258-1.365 5.45 5.45 0 0 1-.038-.663 2.804 2.804 0 0 1 .224-1.102c.069-.168.15-.33.238-.485.177-.31.383-.59.58-.825.393-.472.747-.766.747-.766s-.143-.01-.364-.048a5.03 5.03 0 0 1-.835-.217 3.748 3.748 0 0 1-.474-.207 2.772 2.772 0 0 1-.45-.29 2.049 2.049 0 0 1-.374-.39 1.722 1.722 0 0 1-.254-.499c-.059-.186-.07-.4-.044-.63a3.47 3.47 0 0 1 .177-.736 6.79 6.79 0 0 1 .331-.782c.129-.261.273-.521.42-.77a17.078 17.078 0 0 1 1.238-1.797s-.943.629-2.672 1.729a3.097 3.097 0 0 1-.702.326 4.47 4.47 0 0 1-.777.175 6.354 6.354 0 0 1-.798.057 8.454 8.454 0 0 1-.769-.028 10.557 10.557 0 0 1-1.748-.294s-1.1 5.972-3.301 9.43l-2.2 3.459 1.729 1.886s5.187-5.502 7.23-4.716c2.043.786 3.615 1.1 3.615 1.1Z" fill="#FEAC7C"/><path d="M22.053 44.79S57.955 6.269 55.287 8.158c-2.667 1.89-29.902 28.583-33.234 36.632Zm.629 6.366S63.734 11.27 63.512 10.38c-.222-.89-29.564 28.23-32.454 31.12-2.89 2.89-8.376 9.655-8.376 9.655Z" fill="#CF4294"/><path d="M47.579 8.522s.132-1.906.688-1.827c.556.08 2.33.45 3.31.291.98-.159 2.489 1.086 3.256 1.589.768.503 3.92 3.786 4.74 5.084.82 1.297.715 2.86 2.012 3.706 1.297.848 2.568 1.933 2.621 2.198.053.265-.82.927-.82.927s-3.68-3.39-5.799-5.56c-2.118-2.172-2.754-3.495-5.613-4.687-2.86-1.191-4.395-1.721-4.395-1.721Z" fill="#fff"/><path d="M46.466 8.996c.3-.637.599-1.31 1.61-.861 1.01.449 1.46-.15 2.808.262 1.348.412 4.643 1.46 5.018 2.246.374.787 1.235 1.498 2.62 3.22 1.386 1.723 1.803 3.86 4.045 5.206.749.449 1.573 1.422 1.123 1.722-.45.3-.486 1.16-.786 1.46-.3.3-2.734 1.273-3.932-1.01-1.198-2.285-1.123-4.082-3.931-6.778-2.809-2.696-8.575-5.467-8.575-5.467Z" fill="#E32618"/><path d="M43.562 13.826s2.111-2.445 3.223-.944c1.111 1.5 8.588 5.637 9.947 9.558 1.267 3.657-1.664 3.758-1.056 4.557 0 0 1.779 1.278 2-.055.223-1.334 1.168-1.89 1.835-1.945.667-.056-.5-.5.944-1.334 1.445-.834 2.208-.813 1.318-2.591-.889-1.779-.873.257-2.151-2.244-1.278-2.5-2.334-4.89-4.28-6.446-1.944-1.556-6.223-2.501-7.724-3.28-1.5-.777-2.167-1.11-2.167 0 0 1.112-.89 1.001-1.278 1.39-.39.39-1.612 2-.611 3.334Z" fill="#FFC517"/><path d="M45.729 10.492c.667.111 5.252 2.918 7.14 5.252 1.89 2.334.668-.14-.944-1.89-1.611-1.75-3.556-2.584-4.223-2.917-.667-.334-1.973-.445-1.973-.445ZM59.01 23.44c-.388-1.194-.972-1.722-1.917-3.39-.944-1.667-2.028-3.084-2.028-2.667 0 .417 2.14 3.807 2.584 4.696.445.89 1.362 1.361 1.362 1.361Z" fill="#FFAC17"/><path d="m8.106 68.41-.08-2.24s1.949.35 2.828.124c.88-.226 2.362-.503 4.648-.528 2.286-.025 8.415-.276 13.766-.452 5.35-.176 8.214-.301 9.872-.377 1.658-.075 12.905-.298 12.905-.298s-8.835-2.34-9.488-2.39c-.653-.05-7.989-.854-9.345-1.055-1.357-.2-4.823-.954-4.924-1.155-.1-.201-.804-2.412 2.563-3.517 3.366-1.105 4.42-2.06 7.486-2.362 3.064-.301 3.416-.401 7.837-.602 4.422-.202 7.537-.101 9.596-.453 2.06-.351 4.321-.05 4.371-1.005.05-.954-5.275-7.285-6.631-9.093-1.357-1.809-1.759-2.965-1.256-3.417.502-.452 3.416-1.608 4.17-2.562.753-.955 3.014-3.919 3.617-5.225.603-1.306 2.412-3.819 2.412-3.819l3.868 2.261s-2.9 3.466-4.02 4.22c-1.117.755-4.42 4.824-5.124 5.678-.703.854-1.909 1.457-1.306 2.562.603 1.106 2.813 3.668 4.02 5.527 1.205 1.859 3.49 4.915 2.708 6.123-.781 1.208-1.492 1.74-1.918 1.918-.426.178-13.216.285-14.424.285-1.208 0-3.481.07-6.146.497-2.664.426-6.252 1.03-6.75 1.35-.497.32 1.492.604 4.512.924 3.02.32 19.824 3.801 20.748 4.512.923.71 1.634.994 1.705 1.776.07.781-2.203 1.67-4.867 1.812-2.665.142-20.712.213-24.3.142-3.589-.071-23.053.838-23.053.838Z" fill="#fff"/><path d="M55.885 38.972c-1.776 1.066-2.238 1.137-2.238 1.67 0 .533 2.984-.178 2.238-1.67ZM34.356 57.233c-.817.106-2.274.39-2.913 1.279-.64.888 1.74 1.314 2.38 1.314.64 0 4.05.39 3.73.284-.32-.106-4.334-.959-4.618-1.208-.284-.248.142-1.634 1.421-1.67Zm17.689 7.406c2.561.339 3.023.658 4.621.836 1.6.178 3.411.64.818.604-2.594-.036-3.589.035-5.436 0-1.847-.036-3.304 0-4.085-.107-.782-.106 4.082-1.333 4.082-1.333Z" fill="#A89194"/></svg>