<svg width="20" height="21" viewBox="0 0 20 21" fill="none" xmlns="http://www.w3.org/2000/svg"><g clip-path="url(#a)"><path d="M1.957 11.152H.652a.652.652 0 1 1 0-1.304h1.305a.652.652 0 1 1 0 1.304Z" fill="#FFE14D"/><path d="M19.348 11.152h-1.305a.652.652 0 1 1 0-1.304h1.305a.652.652 0 0 1 0 1.304Z" fill="#FC3"/><path d="M1.905 15.826a.652.652 0 0 1-.327-1.217l1.13-.652a.652.652 0 1 1 .652 1.13l-1.13.652a.649.649 0 0 1-.325.087Z" fill="#FFE14D"/><path d="M16.966 7.13a.652.652 0 0 1-.326-1.216l1.13-.653a.652.652 0 1 1 .651 1.13l-1.13.652a.648.648 0 0 1-.325.088Z" fill="#FC3"/><path d="M5.325 19.248a.652.652 0 0 1-.564-.978l.653-1.13a.652.652 0 1 1 1.129.652l-.652 1.13a.652.652 0 0 1-.566.326Z" fill="#FFE14D"/><path d="M14.021 4.187a.652.652 0 0 1-.564-.978l.652-1.13a.652.652 0 0 1 1.13.652l-.653 1.13a.652.652 0 0 1-.565.326Zm.654 15.061a.652.652 0 0 1-.566-.326l-.652-1.13a.652.652 0 1 1 1.13-.652l.652 1.13a.652.652 0 0 1-.564.978Z" fill="#FC3"/><path d="M5.979 4.187a.652.652 0 0 1-.565-.327L4.76 2.73a.652.652 0 1 1 1.13-.651l.652 1.13a.652.652 0 0 1-.564.978Z" fill="#FFE14D"/><path d="M18.095 15.826a.647.647 0 0 1-.326-.087l-1.13-.653a.652.652 0 1 1 .653-1.129l1.13.652a.652.652 0 0 1-.327 1.217Z" fill="#FC3"/><path d="M3.034 7.13a.647.647 0 0 1-.326-.087l-1.13-.652a.652.652 0 1 1 .653-1.13l1.13.653a.652.652 0 0 1-.327 1.217Z" fill="#FFE14D"/><path d="M10 16.587A6.094 6.094 0 0 1 3.913 10.5 6.094 6.094 0 0 1 10 4.413a6.094 6.094 0 0 1 6.087 6.087A6.094 6.094 0 0 1 10 16.587Z" fill="#FFC033"/><path d="M16.087 10.5A6.094 6.094 0 0 0 10 4.413v12.174a6.094 6.094 0 0 0 6.087-6.087Z" fill="#F9A926"/><path d="M10 3.109a.652.652 0 0 1-.652-.652V1.152a.652.652 0 1 1 1.304 0v1.305c0 .36-.292.652-.652.652Z" fill="#FFE14D"/><path d="M10.652 2.457V1.152A.652.652 0 0 0 10 .5v2.609c.36 0 .652-.292.652-.652Z" fill="#FC3"/><path d="M10 20.5a.652.652 0 0 1-.652-.652v-1.304a.652.652 0 1 1 1.304 0v1.304c0 .36-.292.652-.652.652Z" fill="#FFE14D"/><path d="M10.652 19.848v-1.304A.652.652 0 0 0 10 17.89v2.61c.36 0 .652-.293.652-.653Z" fill="#FC3"/></g><defs><clipPath id="a"><path fill="#fff" transform="translate(0 .5)" d="M0 0h20v20H0z"/></clipPath></defs></svg>