<svg width="84" height="84" viewBox="0 0 84 84" fill="none" xmlns="http://www.w3.org/2000/svg"><g clip-path="url(#a)"><path d="M45.751 9.084c1.601-1.371 4.08-.707 4.781 1.281l5.955 16.886a3 3 0 0 0 1.265 1.562l15.278 9.335c1.8 1.1 1.933 3.662.26 4.943L59.07 53.97a3 3 0 0 0-1.095 1.687l-4.157 17.415c-.489 2.05-2.885 2.97-4.62 1.774l-14.743-10.16a3 3 0 0 0-1.941-.521l-17.848 1.428c-2.101.168-3.716-1.826-3.115-3.846l5.108-17.16a3 3 0 0 0-.105-2.008L9.68 26.047c-.81-1.947.588-4.099 2.696-4.151l17.899-.445a3 3 0 0 0 1.877-.72l13.6-11.647Z" fill="url(#b)"/><path d="m5.987 27.582 3.693-1.535-3.693 1.535 6.737 16.205-5.007 16.82c-1.403 4.714 2.365 9.367 7.268 8.975l17.493-1.4 14.45 9.959c4.05 2.79 9.64.645 10.781-4.139l4.074-17.07L75.72 46.267c3.906-2.989 3.593-8.968-.604-11.532l-14.975-9.15-5.837-16.55c-1.635-4.639-7.419-6.188-11.154-2.99L29.82 17.462l-17.544.436c-4.917.122-8.178 5.144-6.29 9.685Zm54.272-1.662Z" stroke="url(#c)" stroke-opacity=".2" stroke-width="8"/></g><defs><linearGradient id="b" x1="4.274" y1="3.291" x2="67.303" y2=".266" gradientUnits="userSpaceOnUse"><stop stop-color="#AA429E"/><stop offset="1" stop-color="#8C2380"/></linearGradient><linearGradient id="c" x1="4.274" y1="3.291" x2="67.303" y2=".266" gradientUnits="userSpaceOnUse"><stop stop-color="#AA429E"/><stop offset="1" stop-color="#8C2380"/></linearGradient><clipPath id="a"><path fill="#fff" transform="translate(0 .001)" d="M0 0h84v84H0z"/></clipPath></defs></svg>