<svg width="97" height="84" viewBox="0 0 97 84" fill="none" xmlns="http://www.w3.org/2000/svg"><g clip-path="url(#a)"><path d="M62.351 75.989 8.386 61.47a2 2 0 0 1-1.479-1.861L5.354 14.966c-.03-.88 1.008-1.366 1.665-.781l17.387 15.49 25.432-16.884a1 1 0 0 1 1.454.399l13.155 27.258 22.813-4.675c.862-.177 1.515.766 1.047 1.51L64.566 75.122a2 2 0 0 1-2.214.868Z" fill="#FFBF5E"/><path d="M65.09 79.801 4.105 63.394a1 1 0 0 1-.74-.953L2.69 8.091c-.011-.886 1.05-1.347 1.69-.736l19.025 18.141L51.98 4.806a1 1 0 0 1 1.504.412L67.41 37.336l25.56-6.147c.86-.207 1.546.724 1.092 1.485L66.208 79.348a1 1 0 0 1-1.118.453Z" stroke="#FFBF5E" stroke-dasharray="5 5"/><path d="M35.033 55.913 40.15 36.81l2.327 3.803-6.83-1.83 1.473-5.502 11.004 2.949-5.797 21.636-7.295-1.954Z" fill="#fff"/></g><defs><clipPath id="a"><path fill="#fff" transform="translate(.605)" d="M0 0h96v84H0z"/></clipPath></defs></svg>