<svg width="18" height="18" viewBox="0 0 18 18" fill="none" xmlns="http://www.w3.org/2000/svg"><path d="M15.008 3.15A8.342 8.342 0 0 0 9.096.7C4.472.7.726 4.433.726 9.042c0 1.458.409 2.916 1.111 4.141L.667 17.5l4.448-1.167a8.558 8.558 0 0 0 3.981.992c4.624 0 8.37-3.733 8.37-8.342-.058-2.158-.877-4.258-2.458-5.833Zm-1.873 8.867c-.176.466-.995.933-1.405.991-.351.059-.82.059-1.288-.058-.292-.117-.702-.233-1.17-.467-2.108-.875-3.454-2.975-3.571-3.15-.117-.116-.878-1.108-.878-2.158 0-1.05.527-1.517.702-1.75.176-.233.41-.233.586-.233h.41c.116 0 .292-.059.468.35.175.408.585 1.458.644 1.516a.37.37 0 0 1 0 .35c-.059.117-.118.234-.235.35-.117.117-.234.292-.292.35-.117.117-.234.234-.117.409.117.233.526.875 1.17 1.458.82.7 1.464.933 1.698 1.05.234.117.351.058.468-.058.117-.117.527-.584.644-.817.117-.233.293-.175.468-.117.176.059 1.23.584 1.405.7.234.117.351.175.41.234.059.175.059.583-.117 1.05Z" fill="#48C95F"/></svg>