<svg width="21" height="21" viewBox="0 0 21 21" fill="none" xmlns="http://www.w3.org/2000/svg">
<g clip-path="url(#clip0_615_9590)">
<path d="M18.1461 20.5001H2.85385C2.197 20.5001 1.66455 19.9677 1.66455 19.3108V17.6564L19.3354 14.4453V19.3108C19.3354 19.9677 18.8029 20.5001 18.1461 20.5001Z" fill="#D9D9D9"/>
<path d="M14.9107 19.3107H2.85583C2.19791 19.3107 1.66455 18.7773 1.66455 18.1194V3.34728C1.66455 2.68937 2.19791 2.15601 2.85583 2.15601H18.1441C18.802 2.15601 19.3354 2.68937 19.3354 3.34728V14.8859C19.3354 15.2019 19.3354 18.1194 19.3354 18.1194C19.3354 18.9 18.8435 19.3107 18.1082 19.3107C18.1082 19.3107 15.2267 19.3107 14.9107 19.3107Z" fill="#EBEDF2"/>
<path d="M19.3354 3.3453V6.40496H1.66479V3.3453C1.66479 2.68881 2.1972 2.15601 2.85409 2.15601H18.1461C18.803 2.15601 19.3354 2.68881 19.3354 3.3453Z" fill="#AA429E"/>
<path d="M5.03127 4.23184C4.80443 4.23184 4.61184 4.23172 4.44772 4.23172C3.94901 4.23172 3.54346 3.82617 3.54346 3.32786V2.15601H4.13811V3.32786C4.13811 3.49833 4.27686 3.63708 4.44772 3.63708C4.61184 3.63708 5.19539 4.23184 5.03127 4.23184Z" fill="#701065"/>
<path d="M15.8324 4.23184C15.8324 4.23184 15.4131 4.23172 15.2486 4.23172C14.7503 4.23172 14.3447 3.82617 14.3447 3.32786V2.15601H14.9394V3.32786C14.9394 3.49833 15.0781 3.63708 15.2486 3.63708C15.4131 3.63708 15.8324 4.06772 15.8324 4.23184Z" fill="#701065"/>
<path d="M5.47708 2.15606V1.40414C5.47708 1.23348 5.33825 1.09465 5.16759 1.09465H5.0311C4.86043 1.09465 4.7216 1.23348 4.7216 1.40414V3.32763C4.7216 3.4983 4.86043 3.63713 5.0311 3.63713C5.1953 3.63713 5.32842 3.77025 5.32842 3.93445C5.32842 4.09865 5.1953 4.23177 5.0311 4.23177C4.53254 4.23177 4.12695 3.82618 4.12695 3.32763V1.40414C4.12695 0.90559 4.53254 0.5 5.0311 0.5H5.16759C5.66614 0.5 6.07173 0.90559 6.07173 1.40414V2.15606H5.47708Z" fill="#554E56"/>
<path d="M16.2781 2.15606V1.40414C16.2781 1.23348 16.1393 1.09465 15.9686 1.09465H15.8321C15.6615 1.09465 15.5226 1.23348 15.5226 1.40414V3.32763C15.5226 3.4983 15.6615 3.63713 15.8321 3.63713C15.9963 3.63713 16.1294 3.77025 16.1294 3.93445C16.1294 4.09865 15.9963 4.23177 15.8321 4.23177C15.3336 4.23177 14.928 3.82618 14.928 3.32763V1.40414C14.928 0.90559 15.3336 0.5 15.8321 0.5H15.9686C16.4672 0.5 16.8728 0.90559 16.8728 1.40414V2.15606H16.2781Z" fill="#554E56"/>
<path d="M10.7605 9.40506L11.7175 11.3441C11.7598 11.4298 11.8416 11.4892 11.9362 11.503L14.076 11.8139C14.3142 11.8485 14.4094 12.1413 14.237 12.3093L12.6885 13.8187C12.6201 13.8854 12.5888 13.9815 12.605 14.0757L12.9705 16.2069C13.0112 16.4442 12.7622 16.6251 12.5491 16.5131L10.6352 15.5069C10.5506 15.4624 10.4495 15.4624 10.3649 15.5069L8.45092 16.5131C8.23784 16.6252 7.9888 16.4442 8.02951 16.2069L8.39502 14.0757C8.4112 13.9815 8.37996 13.8854 8.3115 13.8187L6.76307 12.3093C6.5907 12.1413 6.68581 11.8485 6.92402 11.8139L9.06389 11.503C9.15847 11.4892 9.24026 11.4298 9.28256 11.3441L10.2395 9.40506C10.3461 9.1892 10.654 9.1892 10.7605 9.40506Z" fill="#FF6C54"/>
</g>
<defs>
<clipPath id="clip0_615_9590">
<rect width="20" height="20" fill="white" transform="translate(0.5 0.5)"/>
</clipPath>
</defs>
</svg>
