<svg width="74" height="74" viewBox="0 0 74 74" fill="none" xmlns="http://www.w3.org/2000/svg">
<g clip-path="url(#clip0_699_7792)">
<path d="M49.7954 32.7094L33.6739 13.3336L23.5177 36.4025L8.00587 27.6017L18.1491 59.8459L61.4179 53.7648L62.2805 19.9739L49.7954 32.7094Z" fill="#F6B93B"/>
<path d="M62.0163 28.1826C65.1611 27.7406 67.3521 24.833 66.9101 21.6883C66.4682 18.5435 63.5606 16.3525 60.4158 16.7945C57.2711 17.2364 55.0801 20.144 55.522 23.2888C55.964 26.4335 58.8716 28.6245 62.0163 28.1826Z" fill="#FF6C54"/>
<path d="M34.8776 21.8984C38.5692 21.3796 41.1413 17.9664 40.6225 14.2747C40.1037 10.5831 36.6904 8.01099 32.9988 8.52982C29.3071 9.04865 26.735 12.4619 27.2539 16.1535C27.7727 19.8452 31.186 22.4173 34.8776 21.8984Z" fill="#FF6C54"/>
<path d="M10.5223 35.4196C13.667 34.9777 15.8581 32.0701 15.4161 28.9253C14.9741 25.7806 12.0666 23.5896 8.92182 24.0315C5.77709 24.4735 3.58607 27.3811 4.02803 30.5258C4.46999 33.6706 7.37758 35.8616 10.5223 35.4196Z" fill="#FF6C54"/>
<path d="M35.0629 34.4618L32.2152 42.9406C32.1289 43.1983 32.1037 43.4725 32.1415 43.7417C32.1793 44.0108 32.2792 44.2674 32.4332 44.4914L37.5076 51.8568C37.6918 52.1247 37.947 52.3359 38.2446 52.4667C38.5421 52.5976 38.8702 52.643 39.1921 52.5977C39.514 52.5525 39.8169 52.4184 40.0669 52.2106C40.3168 52.0028 40.5039 51.7294 40.6072 51.4212L43.4548 42.9424C43.5411 42.6847 43.5664 42.4104 43.5285 42.1413C43.4907 41.8722 43.3909 41.6156 43.2369 41.3916L38.1624 34.0262C37.9782 33.7583 37.7231 33.5471 37.4255 33.4163C37.128 33.2854 36.7998 33.24 36.4779 33.2853C36.156 33.3305 35.8531 33.4646 35.6032 33.6724C35.3532 33.8802 35.1661 34.1536 35.0629 34.4618Z" fill="white"/>
<path d="M24.0596 52.7037C23.832 52.7358 23.6003 52.7228 23.3778 52.6653C23.1552 52.6078 22.9462 52.507 22.7626 52.3687C22.5791 52.2304 22.4246 52.0572 22.308 51.8591C22.1914 51.6611 22.1149 51.4419 22.0831 51.2143L21.5264 47.2532C21.4618 46.7936 21.5824 46.3272 21.8617 45.9565C22.1411 45.5858 22.5562 45.3413 23.0158 45.2767C23.4754 45.2121 23.9419 45.3327 24.3125 45.6121C24.6832 45.8914 24.9277 46.3065 24.9923 46.7661L25.549 50.7272C25.5811 50.9548 25.5681 51.1865 25.5106 51.409C25.4531 51.6316 25.3523 51.8406 25.214 52.0242C25.0757 52.2077 24.9025 52.3622 24.7044 52.4788C24.5064 52.5954 24.2872 52.6719 24.0596 52.7037Z" fill="white"/>
<path d="M53.7676 48.5284C53.54 48.5605 53.3083 48.5475 53.0858 48.49C52.8632 48.4325 52.6542 48.3317 52.4706 48.1934C52.2871 48.0551 52.1326 47.8819 52.016 47.6838C51.8994 47.4858 51.8229 47.2666 51.7911 47.039L51.2344 43.0779C51.1698 42.6183 51.2904 42.1519 51.5698 41.7812C51.8491 41.4105 52.2642 41.166 52.7238 41.1014C53.1834 41.0368 53.6499 41.1575 54.0205 41.4368C54.3912 41.7161 54.6357 42.1312 54.7003 42.5908L55.257 46.5519C55.2891 46.7795 55.2761 47.0112 55.2186 47.2337C55.1611 47.4563 55.0603 47.6653 54.922 47.8489C54.7837 48.0325 54.6105 48.187 54.4124 48.3036C54.2144 48.4202 53.9952 48.4966 53.7676 48.5284Z" fill="white"/>
<path d="M61.7822 53.461L17.7152 59.6542C15.2541 60.0001 13.5394 62.2756 13.8853 64.7367C14.2312 67.1978 16.5067 68.9125 18.9678 68.5667L63.0347 62.3734C65.4958 62.0276 67.2105 59.7521 66.8647 57.291C66.5188 54.8299 64.2433 53.1152 61.7822 53.461Z" fill="#FF6C54"/>
</g>
<defs>
<clipPath id="clip0_699_7792">
<rect width="64" height="64" fill="white" transform="translate(0.85791 9.76489) rotate(-8)"/>
</clipPath>
</defs>
</svg>
