<svg width="72" height="71" viewBox="0 0 72 71" fill="none" xmlns="http://www.w3.org/2000/svg">
<g clip-path="url(#clip0_699_7725)">
<path d="M27.5912 48.3005C27.0119 48.0666 26.3533 48.3449 26.12 48.9221L20.0463 63.9549C19.9456 64.2042 20.1521 64.4699 20.4195 64.435L25.6923 63.7463C25.8181 63.73 25.9429 63.7822 26.0195 63.8832L29.0694 67.9066C29.2344 68.1244 29.5743 68.08 29.6764 67.8271L35.7436 52.8102C35.9769 52.233 35.6964 51.5754 35.1171 51.3413L27.5912 48.3005Z" fill="#AA429E"/>
<path d="M47.7365 45.4692C48.2288 45.0846 48.9386 45.1706 49.322 45.6612L59.3039 58.4374C59.4694 58.6494 59.3442 58.9617 59.0776 59.0019L53.8192 59.7932C53.6938 59.8121 53.5881 59.8968 53.5424 60.015L51.7197 64.7232C51.621 64.9781 51.2821 65.0291 51.1142 64.8141L41.1427 52.0513C40.7595 51.5607 40.8478 50.8512 41.3401 50.4666L47.7365 45.4692Z" fill="#AA429E"/>
<path d="M60.1955 24.7283C59.4533 24.2748 58.3313 23.5893 58.1563 23.1762C57.9598 22.7121 58.2417 21.4362 58.4473 20.5046C58.8455 18.6996 59.2973 16.6533 58.1076 15.1333C56.9034 13.595 54.7913 13.5416 52.9274 13.4944C52.0394 13.4717 50.6977 13.4377 50.3154 13.1495C49.933 12.8614 49.5304 11.581 49.2639 10.7338C48.7047 8.9551 48.0708 6.93958 46.2601 6.20601C44.4718 5.48122 42.6291 6.47957 41.0032 7.36C40.1648 7.8144 39.0155 8.43614 38.5159 8.37563C38.0705 8.32118 37.1023 7.43166 36.4613 6.84334C35.0738 5.56886 33.5006 4.1235 31.529 4.40059C29.5574 4.67768 28.4435 6.50069 27.4606 8.10874C27.0071 8.85091 26.3216 9.97282 25.9085 10.1479C25.444 10.3439 24.1686 10.0625 23.237 9.85689C21.4319 9.45865 19.3856 9.00686 17.8656 10.1966C16.3274 11.4008 16.274 13.5129 16.2267 15.3769C16.204 16.2647 16.17 17.6065 15.8818 17.9888C15.5937 18.3712 14.3133 18.7737 13.4661 19.0403C11.6874 19.5995 9.67191 20.2334 8.93834 22.0441C8.21359 23.8327 9.2119 25.6751 10.0923 27.3009C10.5467 28.1393 11.1689 29.2887 11.108 29.7884C11.0535 30.2338 10.164 31.2019 9.57565 31.8428C8.30119 33.2304 6.85583 34.8037 7.13292 36.7753C7.41001 38.7469 9.23302 39.8607 10.841 40.8435C11.5832 41.2972 12.7051 41.9826 12.8803 42.3958C13.0766 42.8597 12.7948 44.1356 12.5892 45.0673C12.191 46.8723 11.7392 48.9185 12.9289 50.4385C14.1331 51.9768 16.2453 52.0302 18.1092 52.0775C18.997 52.1001 20.3388 52.1342 20.7212 52.4224C21.1035 52.7104 21.506 53.9908 21.7727 54.8381C22.3318 56.6168 22.9658 58.6323 24.7765 59.3659C26.5646 60.0906 28.4074 59.0922 30.0332 58.2118C30.8716 57.7575 32.0215 57.1356 32.5207 57.1962C32.9661 57.2507 33.9342 58.1402 34.5751 58.7285C35.9628 60.0029 37.536 61.4483 39.5076 61.1712C41.4792 60.8941 42.5931 59.0711 43.5759 57.4631C44.0295 56.7209 44.715 55.599 45.1281 55.4239C45.5925 55.2284 46.8679 55.5094 47.7996 55.7149C49.6046 56.1128 51.6508 56.5649 53.1708 55.3753C54.7091 54.1711 54.7626 52.059 54.8098 50.195C54.8324 49.3071 54.8665 47.9653 55.1547 47.5831C55.4427 47.2007 56.7231 46.7981 57.5704 46.5315C59.3491 45.9724 61.3647 45.3385 62.0982 43.5278C62.8228 41.7391 61.8246 39.8968 60.9442 38.2709C60.4898 37.4325 59.8676 36.2832 59.9285 35.7836C59.9831 35.3382 60.8725 34.37 61.4608 33.729C62.7353 32.3415 64.1806 30.7683 63.9035 28.7967C63.6264 26.8251 61.8034 25.7112 60.1955 24.7283Z" fill="#FF6C54"/>
<path d="M51.0966 44.525C57.57 35.9345 55.8537 23.7228 47.2632 17.2493C38.6726 10.7758 26.4608 12.4921 19.9874 21.0826C13.5139 29.6732 15.2302 41.885 23.8207 48.3584C32.4113 54.8319 44.6231 53.1156 51.0966 44.525Z" fill="white"/>
<path d="M36.4733 38.1194C35.5861 39.2968 33.9125 39.532 32.7353 38.6448L28.4484 35.4145C27.3273 34.5696 27.1033 32.976 27.9481 31.8548C28.793 30.7338 30.3866 30.5098 31.5077 31.3545L33.8665 33.132L38.5284 26.9453C39.3732 25.8243 40.9669 25.6003 42.0881 26.445C43.2091 27.2899 43.4331 28.8835 42.5884 30.0047L36.4733 38.1194Z" fill="#F6B93B"/>
</g>
<defs>
<clipPath id="clip0_699_7725">
<rect width="62.7266" height="62.7266" fill="white" transform="translate(0.500366 8.76147) rotate(-8)"/>
</clipPath>
</defs>
</svg>
