<svg width="72" height="70" viewBox="0 0 72 70" fill="none" xmlns="http://www.w3.org/2000/svg">
<g clip-path="url(#clip0_699_7762)">
<path d="M19.8799 29.5517C19.4807 29.7804 19.2199 29.7846 18.3878 29.9016C12.2531 30.7637 6.47596 26.5808 5.55454 20.4557C4.64924 14.4336 8.72905 8.53788 15.2267 7.6247L15.9326 8.15663L15.82 8.17246L16.1837 10.7608C16.0507 10.9373 15.9092 11.125 15.7486 11.3382C11.7578 11.8991 8.83868 15.4712 9.21148 19.4684C9.60904 23.7522 13.5112 26.8001 17.7235 26.2081L18.496 26.0995C18.8374 27.3163 19.3039 28.4714 19.8799 29.5517Z" fill="#FCBE29"/>
<path d="M61.2571 12.6271C62.0597 18.7689 57.6593 24.3822 51.5246 25.2444C50.6922 25.3614 50.4401 25.429 49.9939 25.3194C50.2498 24.1222 50.3799 22.8832 50.3727 21.6194L51.0324 21.5267C55.1074 20.954 58.053 17.2404 57.5434 13.1566C57.025 9.00082 53.1919 6.07582 49.0575 6.65687C48.7935 6.45792 48.5662 6.28664 48.3516 6.12493L48.0036 3.64926L48.5356 2.94336C54.7173 2.07457 60.4463 6.42711 61.2571 12.6271Z" fill="#FE9022"/>
<path d="M36.407 37.8964C34.45 38.1715 32.5383 38.1851 30.7373 37.9714L32.0325 47.1871L43.173 45.6214L41.8778 36.4057C40.2055 37.1075 38.3641 37.6214 36.407 37.8964Z" fill="#FCBE29"/>
<path d="M36.4087 37.9075L37.6232 46.5491L43.1934 45.7663L41.8779 36.4056C40.2065 37.1146 38.3657 37.6324 36.4087 37.9075Z" fill="#FE9022"/>
<path d="M48.7952 44.3098L26.5142 47.4412C25.4892 47.5852 24.7743 48.534 24.9184 49.5589L25.7882 55.7481L51.7827 52.0948L50.9129 45.9056C50.7689 44.8807 49.8201 44.1658 48.7952 44.3098Z" fill="#FF6C54"/>
<path d="M48.6715 44.3274L37.5309 45.8931L38.6617 53.939L51.659 52.1123L50.7892 45.9232C50.6451 44.8982 49.6964 44.1833 48.6715 44.3274Z" fill="#E9533A"/>
<path d="M58.8533 61.8893L21.7182 67.1083C20.6928 67.2524 19.7446 66.5379 19.6005 65.5125L19.0612 61.6752C18.6296 58.6038 20.7772 55.7538 23.8486 55.3221L53.5567 51.1469C56.6281 50.7153 59.4781 52.8629 59.9098 55.9343L60.4491 59.7716C60.5932 60.7971 59.8787 61.7452 58.8533 61.8893Z" fill="#F6B93B"/>
<path d="M53.4195 51.1661L38.5654 53.2537L40.1485 64.518L58.716 61.9085C59.741 61.7644 60.4559 60.8157 60.3119 59.7908L59.7726 55.9535C59.3409 52.8824 56.4905 50.7345 53.4195 51.1661Z" fill="#FE9022"/>
<path d="M36.5393 38.8374C27.325 40.1324 18.7388 33.432 17.3993 23.9012C17.3143 23.2959 15.2223 8.41056 15.1141 7.64062L48.5356 2.94353L50.8209 19.2041C52.1604 28.7349 45.7537 37.5424 36.5393 38.8374Z" fill="#FED941"/>
<path d="M31.8248 5.29199L36.5393 38.8373C38.4914 38.563 40.3178 37.9516 41.9707 37.0667C48.1205 33.7788 51.8766 26.7161 50.8208 19.2036L48.5356 2.94345L31.8248 5.29199Z" fill="#FCBE29"/>
<path d="M32.261 9.44161C25.957 10.3276 21.5553 16.1688 22.4413 22.4728C23.3272 28.7768 29.1694 33.1848 35.4734 32.2988C41.7774 31.4129 46.1783 25.5653 45.2923 19.2613C44.4063 12.9573 38.565 8.55564 32.261 9.44161Z" fill="white"/>
<path d="M35.8377 26.5152C34.9505 27.6926 33.2769 27.9278 32.0997 27.0405L27.8127 23.8102C26.6917 22.9653 26.4677 21.3717 27.3125 20.2506C28.1573 19.1295 29.751 18.9056 30.8721 19.7503L33.2308 21.5277L37.8928 15.341C38.7376 14.22 40.3313 13.996 41.4525 14.8408C42.5735 15.6857 42.7975 17.2793 41.9527 18.4004L35.8377 26.5152Z" fill="#FF6C54"/>
</g>
<defs>
<clipPath id="clip0_699_7762">
<rect width="64" height="60" fill="white" transform="translate(0.13623 9.74561) rotate(-8)"/>
</clipPath>
</defs>
</svg>
