<svg width="64" height="64" viewBox="0 0 64 64" fill="none" xmlns="http://www.w3.org/2000/svg">
<g clip-path="url(#clip0_699_7715)">
<g clip-path="url(#clip1_699_7715)">
<path d="M29.498 0.252447C29.3461 0.281119 29.2023 0.342427 29.0764 0.432063C29.0764 0.432063 17.3896 8.46723 2.01097 12.7595C1.76136 12.8304 1.54609 12.9897 1.4053 13.2077C1.26451 13.4257 1.20783 13.6874 1.24584 13.9441L4.36797 36.1592C6.28062 49.7684 14.866 56.794 22.8431 60.2508C30.8202 63.7077 38.303 63.7584 38.303 63.7584C38.4094 63.7594 38.5153 63.7445 38.6172 63.7142C38.6172 63.7142 45.7962 61.603 52.5114 56.0812C59.2267 50.5595 65.543 41.4396 63.6303 27.8305L60.5082 5.61529C60.474 5.35807 60.3473 5.12211 60.1519 4.95139C59.9565 4.78067 59.7056 4.68686 59.4462 4.68749C43.4802 4.80044 30.0313 0.29786 30.0313 0.29786C29.8603 0.237747 29.6767 0.222091 29.498 0.252447Z" fill="#FF6C54"/>
<path d="M31.3225 12.9502C20.8148 14.4269 13.4778 24.1634 14.9546 34.6711C16.4314 45.1788 26.1693 52.5262 36.6771 51.0494C47.1848 49.5727 54.5203 39.8258 53.0435 29.318C51.5668 18.8103 41.8303 11.4734 31.3225 12.9502Z" fill="white"/>
<path d="M29.2325 21.8794C28.9744 21.9419 28.7489 22.0982 28.5997 22.3178C28.4506 22.5375 28.3886 22.8048 28.4257 23.0677L29.1702 28.3652L23.8831 29.1082C23.6023 29.1466 23.3482 29.295 23.1768 29.5207C23.0053 29.7464 22.9305 30.0309 22.9689 30.3117L23.8615 36.6633C23.9021 36.9438 24.0524 37.1966 24.2794 37.3663C24.5064 37.536 24.7915 37.6086 25.072 37.5681L30.3592 36.825L31.1037 42.1225C31.1238 42.2615 31.1712 42.3953 31.243 42.516C31.3149 42.6368 31.4098 42.7421 31.5224 42.8261C31.6351 42.9102 31.7632 42.9712 31.8994 43.0057C32.0356 43.0401 32.1773 43.0474 32.3163 43.027L38.6576 42.1358C38.9384 42.0974 39.1924 41.949 39.3639 41.7234C39.5353 41.4977 39.6101 41.2132 39.5718 40.9324L38.8273 35.6349L44.1165 34.8915C44.3973 34.8532 44.6514 34.7048 44.8228 34.4791C44.9943 34.2534 45.0691 33.9689 45.0308 33.6881L44.1381 27.3365C44.0975 27.056 43.9472 26.8032 43.7202 26.6335C43.4932 26.4638 43.2081 26.3912 42.9276 26.4317L37.6384 27.1751L36.8938 21.8776C36.8533 21.5971 36.7029 21.3441 36.4759 21.1744C36.2489 21.0048 35.9638 20.9323 35.6833 20.9728L29.342 21.864C29.3053 21.8672 29.2687 21.8724 29.2325 21.8794Z" fill="#F6B93B"/>
</g>
</g>
<defs>
<clipPath id="clip0_699_7715">
<rect width="64" height="64" fill="white"/>
</clipPath>
<clipPath id="clip1_699_7715">
<rect width="68.394" height="68.394" fill="white" transform="translate(-4.62354 2.89526) rotate(-8)"/>
</clipPath>
</defs>
</svg>
