<svg width="24" height="24" viewBox="0 0 24 24" fill="none" xmlns="http://www.w3.org/2000/svg">
<path d="M12 6C14.5797 6 17.1595 7.4256 19.553 10.2769L19.9199 10.7138C20.5445 11.4575 20.5445 12.5425 19.9199 13.2862L19.553 13.7231C19.0432 14.3304 18.5249 14.873 18 15.351M8.5 7C7.0739 7.7023 5.7889 8.6784 4.447 10.2769L4.08009 10.7138C3.45553 11.4575 3.45553 12.5425 4.08008 13.2862L4.447 13.7231C7.9011 17.8378 11.7431 18.9835 15.4132 17.1602L8.5 7Z" stroke="#AA429E" stroke-width="1.75" stroke-linecap="round"/>
<path d="M6 3L18 21M10.3411 9.5C9.5327 10.0375 9 10.9565 9 12C9 13.6569 10.3431 15 12 15C12.658 15 13.0054 14.8592 13.5 14.5L10.3411 9.5ZM14 9.7639V9.7639C13.8853 9.66121 13.756 9.78921 13.8408 9.91772L14.6151 11.0907C14.706 11.2283 14.8842 11.1555 14.8293 11V11C14.6597 10.5202 14.3715 10.0964 14 9.7639Z" stroke="#AA429E" stroke-width="1.75" stroke-linecap="round"/>
</svg>
