<svg width="24" height="24" viewBox="0 0 24 24" fill="none" xmlns="http://www.w3.org/2000/svg">
<path d="M4.447 13.7231L4.08009 13.2861C3.45553 12.5424 3.45553 11.4575 4.08009 10.7138L4.447 10.2769C9.234 4.57438 14.766 4.57438 19.553 10.2769L19.9199 10.7138C20.5445 11.4575 20.5445 12.5424 19.9199 13.2861L19.553 13.7231C14.766 19.4256 9.234 19.4256 4.447 13.7231Z" stroke="#AA429E" stroke-width="1.75" stroke-linecap="round"/>
<path d="M12 15C13.6569 15 15 13.6569 15 12C15 10.3431 13.6569 9 12 9C10.3431 9 9 10.3431 9 12C9 13.6569 10.3431 15 12 15Z" stroke="#AA429E" stroke-width="1.75" stroke-linecap="round"/>
</svg>
