<svg width="40" height="40" viewBox="0 0 40 40" fill="none" xmlns="http://www.w3.org/2000/svg">
<circle cx="20" cy="20" r="20" fill="#0966DD"/>
<path fill-rule="evenodd" clip-rule="evenodd" d="M17.78 30C17.78 29.9331 17.7875 29.8654 17.7875 29.7962V20.8047H14V16.8949H17.7875V16.6274C17.7875 15.7804 17.78 14.9327 17.795 14.0857C17.7852 13.1703 17.9404 12.2611 18.2525 11.4048C18.496 10.7715 18.9036 10.2204 19.4305 9.81254C19.9573 9.40471 20.5828 9.15608 21.2375 9.09413C21.455 9.05991 21.68 9.03033 21.8975 9H25.385C25.385 9.23955 25.3775 9.47679 25.3775 9.71556C25.37 10.7002 25.3775 11.684 25.3775 12.671V12.916C25.295 12.9207 25.22 12.9269 25.1525 12.9269C24.53 12.9269 23.915 12.9269 23.2925 12.9269C22.9468 12.9247 22.6071 13.0205 22.31 13.2038C22.0885 13.3434 21.9053 13.5396 21.778 13.7737C21.6506 14.0078 21.5833 14.2719 21.5825 14.5407C21.5525 15.3107 21.575 16.083 21.575 16.8802H26C25.79 18.2023 25.58 19.4872 25.37 20.7907H21.5825C21.575 20.8731 21.5675 20.9377 21.5675 21.0022V29.8374C21.5687 29.8916 21.5737 29.9457 21.5825 29.9992H17.78V30Z" fill="white"/>
</svg>
