<svg width="40" height="40" viewBox="0 0 40 40" fill="none" xmlns="http://www.w3.org/2000/svg">
<circle cx="20" cy="20" r="20" fill="url(#paint0_linear_723_17768)"/>
<path d="M24.4444 12.2222C26.3333 12.2222 27.7778 13.6667 27.7778 15.5556V24.4444C27.7778 26.3333 26.3333 27.7778 24.4444 27.7778H15.5556C13.6667 27.7778 12.2222 26.3333 12.2222 24.4444V15.5556C12.2222 13.6667 13.6667 12.2222 15.5556 12.2222H24.4444ZM24.4444 10H15.5556C12.4444 10 10 12.4444 10 15.5556V24.4444C10 27.5556 12.4444 30 15.5556 30H24.4444C27.5556 30 30 27.5556 30 24.4444V15.5556C30 12.4444 27.5556 10 24.4444 10Z" fill="white"/>
<path d="M24.5 14C23.6 14 23 14.6 23 15.5C23 16.4 23.6 17 24.5 17C25.4 17 26 16.4 26 15.5C26 14.6 25.4 14 24.5 14Z" fill="white"/>
<path d="M20 18C21.1 18 22 18.9 22 20C22 21.1 21.1 22 20 22C18.9 22 18 21.1 18 20C18 18.9 18.9 18 20 18ZM20 16C17.8 16 16 17.8 16 20C16 22.2 17.8 24 20 24C22.2 24 24 22.2 24 20C24 17.8 22.2 16 20 16Z" fill="white"/>
<defs>
<linearGradient id="paint0_linear_723_17768" x1="34" y1="-5.73695e-07" x2="8" y2="34.5" gradientUnits="userSpaceOnUse">
<stop stop-color="#A244B4"/>
<stop offset="0.541667" stop-color="#EF4B5E"/>
<stop offset="1" stop-color="#FFD352"/>
</linearGradient>
</defs>
</svg>
