<svg width="24" height="24" viewBox="0 0 24 24" fill="none" xmlns="http://www.w3.org/2000/svg">
<path fill-rule="evenodd" clip-rule="evenodd" d="M12.852 5.49846C12.4898 4.81432 11.5098 4.81432 11.1476 5.49846L4.99483 17.1203C4.65484 17.7625 5.1204 18.5358 5.84706 18.5358H18.1525C18.8792 18.5358 19.3447 17.7625 19.0047 17.1203L12.852 5.49846ZM9.82189 4.79663C10.7475 3.04826 13.2521 3.04826 14.1777 4.79663L20.3304 16.4185C21.1993 18.0597 20.0095 20.0358 18.1525 20.0358H5.84706C3.99003 20.0358 2.80027 18.0597 3.66915 16.4185L9.82189 4.79663Z" fill="#F90A0A"/>
<path fill-rule="evenodd" clip-rule="evenodd" d="M11.9998 7.82145C12.414 7.82145 12.7498 8.15724 12.7498 8.57145V13.2858C12.7498 13.7 12.414 14.0358 11.9998 14.0358C11.5856 14.0358 11.2498 13.7 11.2498 13.2858V8.57145C11.2498 8.15724 11.5856 7.82145 11.9998 7.82145Z" fill="#F90A0A"/>
<path d="M12.7498 16.2815C12.7498 16.6957 12.414 17.0315 11.9998 17.0315C11.5856 17.0315 11.2498 16.6957 11.2498 16.2815C11.2498 15.8673 11.5856 15.5315 11.9998 15.5315C12.414 15.5315 12.7498 15.8673 12.7498 16.2815Z" fill="#F90A0A"/>
</svg>
