<svg width="26" height="27" viewBox="0 0 26 27" fill="none" xmlns="http://www.w3.org/2000/svg">
<path d="M13 26C19.9035 26 25.5 20.4036 25.5 13.5C25.5 6.59644 19.9035 1 13 1C6.09644 1 0.5 6.59644 0.5 13.5C0.5 20.4036 6.09644 26 13 26Z" stroke="#F2428B"/>
<path d="M21.5308 19.8121C20.5417 18.488 19.2366 17.4181 17.7592 16.6774C16.2818 15.9366 14.6521 15.5506 12.9994 15.55C11.3467 15.5495 9.71663 15.9345 8.23879 16.6744C6.76095 17.4142 5.5228 18.4886 4.53296 19.8121C5.51777 21.1423 6.75382 22.2232 8.23175 22.9682C9.70967 23.7132 11.3416 24.1015 12.9967 24.102C14.6518 24.1026 16.2839 23.7153 17.7623 22.9712C19.2407 22.2271 20.5451 21.1417 21.5308 19.8121Z" fill="#F2428B"/>
<path d="M12.9998 14.5625C15.1538 14.5625 16.8998 12.8164 16.8998 10.6625C16.8998 8.50854 15.1538 6.76245 12.9998 6.76245C10.8459 6.76245 9.09985 8.50854 9.09985 10.6625C9.09985 12.8164 10.8459 14.5625 12.9998 14.5625Z" fill="#F2428B"/>
</svg>
