<svg width="16" height="17" viewBox="0 0 16 17" fill="none" xmlns="http://www.w3.org/2000/svg">
<path d="M15.8815 4.5911V12.4124C15.8815 13.3817 15.095 14.1699 14.124 14.1699H1.87729C0.904664 14.1699 0.118164 13.3817 0.118164 12.4124V4.5911C0.118164 4.28592 0.19532 3.99745 0.33282 3.7476C0.631321 3.20092 1.20985 2.83032 1.87729 2.83032H14.124C14.7898 2.83032 15.37 3.20092 15.6685 3.74929C15.8043 3.99913 15.8815 4.28588 15.8815 4.5911Z" fill="#AA429E"/>
<path d="M0.638672 13.6585L5.7972 8.5022L7.13249 9.83617C7.61245 10.3157 8.39017 10.3157 8.87017 9.83617L10.2054 8.5022L15.3618 13.6586C15.0421 13.974 14.6072 14.1702 14.1234 14.1702H1.87717" fill="#F47FE7"/>
<path opacity="0.2" d="M15.6687 3.74893L9.22588 10.1901C8.54857 10.8709 7.45051 10.8647 6.77754 10.1918L0.333008 3.74724C0.631508 3.20055 1.21004 2.82996 1.87748 2.82996H14.1242C14.79 2.82996 15.3702 3.20055 15.6687 3.74893Z" fill="black"/>
<path d="M15.3649 3.34148L8.87012 9.8346C8.39052 10.3159 7.6124 10.3159 7.1328 9.83629L5.79796 8.50145L0.639648 3.34148C0.985086 3.00945 1.39262 2.82329 1.87724 2.83001H14.124C14.607 2.83001 15.0446 3.02623 15.3649 3.34148Z" fill="#F47FE7"/>
</svg>
