<svg width="20" height="21" viewBox="0 0 20 21" fill="none" xmlns="http://www.w3.org/2000/svg">
<g clip-path="url(#clip0_615_7195)">
<g clip-path="url(#clip1_615_7195)">
<path d="M10 4.5L9.625 19.5H10.375L10 4.5Z" fill="#DD5347"/>
<path d="M17.1909 16.0529C15.8841 15.6176 14.573 16.1357 14.2309 16.9544C14.0017 17.5033 14.6709 18.3169 14.9834 18.4999C14.1808 18.4999 11.4216 18.4999 10 16.1817C11.43 15.0484 20 13.1423 20 13.1423C19.2477 13.5032 16.5343 14.9291 17.1909 16.0529Z" fill="#DB392F"/>
<path d="M16.6057 8.55755C16.7109 9.60085 17.5029 9.74235 18.0865 9.76755C17.5423 10.0903 15.8365 11.4104 16.304 12.6263C16.6058 13.4109 19.2962 13.2592 20 13.1427C20 13.1427 11.43 15.0488 10 16.1821C11.1538 13.4 17.8021 5.41995 17.8522 5.31665C17.5606 5.83635 16.4906 7.41485 16.6057 8.55755Z" fill="#DD5347"/>
<path d="M11.1324 4.4334C11.7075 4.6492 12.165 4.2452 12.4324 3.9851C12.1091 4.5151 11.1442 7.1256 12.1724 7.8765C13.091 8.5475 14.5662 6.4712 14.5662 6.4712C14.9675 7.5012 16.1632 6.9349 17.8531 5.3167C17.8021 5.42 11.1538 13.4 10 16.1818V1.5C10.2177 3.2773 10.6081 4.2367 11.1324 4.4334Z" fill="#E06A5D"/>
<path d="M2.8093 16.0529C4.1161 15.6176 5.4272 16.1357 5.7693 16.9544C5.9985 17.5033 5.3293 18.3169 5.0168 18.4999C5.8194 18.4999 8.5786 18.4999 10.0002 16.1817C8.57 15.0484 0 13.1423 0 13.1423C0.7525 13.5032 3.4659 14.9291 2.8093 16.0529Z" fill="#DD5347"/>
<path d="M3.3943 8.55755C3.2891 9.60085 2.4971 9.74235 1.9135 9.76755C2.4577 10.09 4.1638 11.41 3.696 12.626C3.3942 13.4106 0.7038 13.2589 0 13.1424C0 13.1424 8.57 15.0484 10 16.1817C8.8462 13.3999 2.1979 5.41995 2.1478 5.31665C2.4394 5.83635 3.5094 7.41475 3.3943 8.55755Z" fill="#E06A5D"/>
<path d="M8.86775 4.4334C8.29265 4.6492 7.83515 4.2452 7.56775 3.9851C7.89105 4.5151 8.85595 7.1256 7.82775 7.8765C6.91015 8.5475 5.43485 6.4712 5.43485 6.4712C5.03355 7.5012 3.83785 6.9349 2.14795 5.3167C2.19805 5.42 8.84635 13.4 10.0001 16.1818V1.5C9.78245 3.2773 9.39205 4.2367 8.86775 4.4334Z" fill="#E28072"/>
</g>
</g>
<defs>
<clipPath id="clip0_615_7195">
<rect width="20" height="20" fill="white" transform="translate(0 0.5)"/>
</clipPath>
<clipPath id="clip1_615_7195">
<rect width="20" height="20" fill="white" transform="translate(0 0.5)"/>
</clipPath>
</defs>
</svg>
