<svg width="16" height="19" viewBox="0 0 16 19" fill="none" xmlns="http://www.w3.org/2000/svg">
<path d="M14.2821 4.28C13.7555 3.24178 12.9763 2.35259 12.0163 1.69419C11.0563 1.03579 9.94609 0.629295 8.78788 0.512083C8.26394 0.459514 7.73606 0.459514 7.21212 0.512083C6.05393 0.629372 4.9438 1.03585 3.98372 1.69418C3.02364 2.3525 2.2444 3.24156 1.71761 4.27965C1.05482 5.6042 0.798816 7.09526 0.981833 8.56503C1.16485 10.0348 1.7787 11.4175 2.74608 12.5391L7.46337 18.2744C7.52852 18.3536 7.61041 18.4175 7.70317 18.4613C7.79592 18.5051 7.89724 18.5278 7.99983 18.5278C8.10242 18.5278 8.20373 18.5051 8.29649 18.4613C8.38925 18.4175 8.47114 18.3536 8.53629 18.2744L13.2536 12.5391C14.2209 11.4176 14.8348 10.0349 15.0178 8.56521C15.2008 7.0955 14.9448 5.60449 14.2821 4.28ZM7.99983 10.1943C7.45044 10.1943 6.91338 10.0314 6.45658 9.72617C5.99977 9.42094 5.64374 8.98711 5.4335 8.47954C5.22325 7.97197 5.16824 7.41345 5.27542 6.87461C5.38261 6.33577 5.64716 5.84082 6.03564 5.45234C6.42412 5.06386 6.91908 4.79931 7.45791 4.69212C7.99675 4.58494 8.55526 4.63995 9.06284 4.8502C9.57041 5.06044 10.0042 5.41647 10.3095 5.87328C10.6147 6.33008 10.7776 6.86714 10.7776 7.41653C10.7767 8.15298 10.4838 8.85901 9.96306 9.37976C9.44231 9.90051 8.73628 10.1934 7.99983 10.1943Z" fill="#AA429E"/>
</svg>
