<svg width="20" height="21" viewBox="0 0 20 21" fill="none" xmlns="http://www.w3.org/2000/svg">
<g clip-path="url(#clip0_316_114878)">
<path fill-rule="evenodd" clip-rule="evenodd" d="M17.3686 6.03846C17.3686 4.6387 16.2709 3.5 14.9215 3.5C13.572 3.5 12.4743 4.6387 12.4743 6.03846C12.4743 7.43823 13.572 8.57692 14.9215 8.57692H14.1057C12.3062 8.57692 10.8429 10.0949 10.8429 11.9615V16.6538C10.8429 17.1215 11.2077 17.5 11.6586 17.5H18.1843C18.6352 17.5 19 17.1215 19 16.6538V11.9615C19 10.0949 17.5367 8.57692 15.7372 8.57692H14.9215C16.2709 8.57692 17.3686 7.43823 17.3686 6.03846Z" fill="#FF6C54"/>
<path d="M7.52568 9.88462C7.52568 8.48485 6.42795 7.34615 5.07855 7.34615C3.72915 7.34615 2.63142 8.48485 2.63142 9.88462C2.63142 11.2844 3.72915 12.4231 5.07855 12.4231C6.42795 12.4231 7.52568 11.2844 7.52568 9.88462Z" fill="#AA429E"/>
<path d="M5.89426 12.4231H5.07855H4.26284C2.46333 12.4231 1 13.941 1 15.8077V16.6538C1 17.1215 1.36484 17.5 1.81571 17.5H8.34139C8.79226 17.5 9.1571 17.1215 9.1571 16.6538V15.8077C9.1571 13.941 7.69377 12.4231 5.89426 12.4231Z" fill="#AA429E"/>
<g opacity="0.1">
<path fill-rule="evenodd" clip-rule="evenodd" d="M5.07855 7.34615C6.42795 7.34615 7.52568 8.48485 7.52568 9.88462C7.52568 11.2844 6.42795 12.4231 5.07855 12.4231V7.34615Z" fill="#0B1625"/>
<path fill-rule="evenodd" clip-rule="evenodd" d="M17.3686 6.03846C17.3686 4.66595 16.3132 3.54444 15 3.50129L14.9215 8.57692V17.5H18.1843C18.6352 17.5 19 17.1215 19 16.6538V11.9615C19 10.0949 17.5367 8.57692 15.7372 8.57692H14.9215C16.2709 8.57692 17.3686 7.43823 17.3686 6.03846Z" fill="#0B1625"/>
<path fill-rule="evenodd" clip-rule="evenodd" d="M5.07855 12.4231H5.89426C7.69377 12.4231 9.1571 13.941 9.1571 15.8077V16.6538C9.1571 17.1215 8.79226 17.5 8.34139 17.5H5.07855V12.4231Z" fill="#0B1625"/>
</g>
</g>
<defs>
<clipPath id="clip0_316_114878">
<rect width="20" height="20" fill="white" transform="translate(0 0.5)"/>
</clipPath>
</defs>
</svg>
