<svg width="16" height="16" viewBox="0 0 16 16" fill="none" xmlns="http://www.w3.org/2000/svg">
<g clip-path="url(#clip0_446_17997)">
<path d="M11.129 15.5483C10.3556 15.6954 9.39849 15.429 8.27798 14.7547C6.97466 13.9722 5.51628 12.6752 4.15794 11.1017C2.77418 9.49476 1.67237 7.81515 1.06289 6.36631C0.109875 4.11456 0.601691 3.03828 1.18367 2.53641L3.06862 0.908948C3.18353 0.810766 3.32385 0.745914 3.47118 0.717894C3.77505 0.660104 4.08281 0.773313 4.28839 1.00137L6.38309 3.43672C6.53212 3.61829 6.61098 3.83228 6.58855 4.06553C6.57533 4.29703 6.47048 4.49825 6.29988 4.65474L4.76709 5.97669L9.16032 11.0662L10.6931 9.74429C10.808 9.64611 10.9391 9.583 11.0865 9.55498C11.3903 9.49719 11.7073 9.60865 11.9037 9.83846L14.0076 12.2721C14.1566 12.4536 14.2263 12.6694 14.213 12.9009C14.1906 13.1341 14.0858 13.3353 13.9152 13.4918L12.0302 15.1193C11.7763 15.3393 11.4697 15.4835 11.129 15.5483Z" fill="#FF6C54"/>
<path d="M14.0897 7.13286C14.0344 7.14336 14.0621 7.13811 14.0033 7.1302C13.8104 7.11918 13.6741 6.95429 13.6869 6.77058C13.7925 5.31931 13.3242 3.91041 12.3787 2.80216C11.4258 1.70486 10.1067 1.03979 8.65369 0.92494C8.46077 0.913924 8.32446 0.749025 8.33722 0.565314C8.34824 0.372396 8.51139 0.226874 8.70606 0.247098C10.341 0.365505 11.8285 1.11306 12.8958 2.36034C13.9613 3.59841 14.4923 5.18621 14.3739 6.82119C14.3559 6.97728 14.2462 7.10308 14.0897 7.13286ZM10.8859 6.89299C10.8307 6.9035 10.8583 6.89824 10.8013 6.89954C10.6084 6.88853 10.4703 6.71442 10.4831 6.53071C10.5219 5.93179 10.3361 5.35648 9.94514 4.90607C9.55241 4.44645 9.0145 4.17665 8.41382 4.12869C8.23011 4.11592 8.08459 3.95277 8.09736 3.76906C8.10837 3.57614 8.28073 3.42887 8.46619 3.45085C9.23962 3.50412 9.95683 3.86386 10.4605 4.45504C10.9733 5.04447 11.2234 5.8079 11.1702 6.58133C11.1521 6.73741 11.0425 6.86322 10.8859 6.89299ZM12.4915 7.00744C12.4363 7.01795 12.4565 7.02366 12.3977 7.01575C12.214 7.00298 12.0685 6.83983 12.0795 6.64691C12.1627 5.62928 11.8301 4.63344 11.1573 3.85499C10.4937 3.07478 9.55512 2.60449 8.53003 2.53229C8.34632 2.51953 8.20079 2.35638 8.21181 2.16346C8.23379 1.978 8.39693 1.83248 8.58064 1.84524C9.7912 1.93942 10.8889 2.49394 11.6819 3.40221C12.4673 4.32144 12.8533 5.49793 12.7665 6.69753C12.7577 6.85187 12.6389 6.97942 12.4915 7.00744Z" fill="#BE4B50"/>
<path d="M2.81426 1.12903L6.04551 4.87481L6.29944 4.65478C6.47005 4.4983 6.57489 4.29708 6.58811 4.06557C6.61054 3.83232 6.53168 3.61833 6.38265 3.43677L4.28795 1.00141C4.08238 0.773357 3.77461 0.660148 3.47074 0.717939C3.32341 0.745958 3.18309 0.81081 3.06819 0.908993L2.81426 1.12903Z" fill="#E9533A"/>
<path d="M11.0856 9.55502C10.9382 9.58304 10.8071 9.64614 10.6922 9.74432L10.4383 9.96435L13.6603 13.7119L13.9143 13.4919C14.0849 13.3354 14.1897 13.1342 14.2121 12.9009C14.2254 12.6694 14.1557 12.4537 14.0067 12.2721L11.9028 9.83849C11.7064 9.60868 11.3894 9.49723 11.0856 9.55502Z" fill="#E9533A"/>
</g>
<defs>
<clipPath id="clip0_446_17997">
<rect width="16" height="16" fill="white"/>
</clipPath>
</defs>
</svg>
