<svg width="18" height="16" viewBox="0 0 18 16" fill="none" xmlns="http://www.w3.org/2000/svg">
<path fill-rule="evenodd" clip-rule="evenodd" d="M9 2.00001C7.27349 2.00001 5.71873 2.76501 4.64473 3.99502C4.37248 4.30252 3.89847 4.34002 3.58647 4.06252C3.27522 3.79252 3.24372 3.32001 3.51597 3.00501C4.85923 1.475 6.81674 0.5 9 0.5C13.0253 0.5 16.2698 3.79252 16.3485 7.85004L16.7138 7.47504C17.0033 7.18253 17.478 7.17503 17.7743 7.46754C18.0705 7.75254 18.0758 8.22504 17.7863 8.52504L16.1363 10.2126C15.9953 10.3551 15.8018 10.4376 15.6 10.4376C15.3983 10.4376 15.2048 10.3551 15.0638 10.2126L13.4138 8.52504C13.1243 8.22504 13.1295 7.75254 13.4258 7.46754C13.722 7.17503 14.1968 7.18253 14.4863 7.47504L14.8478 7.84254C14.7683 4.58752 12.165 2.00001 9 2.00001ZM2.39997 5.56253C2.60172 5.56253 2.79522 5.64503 2.93622 5.78753L4.58623 7.47504C4.87573 7.77504 4.87048 8.24754 4.57423 8.53254C4.27798 8.82504 3.80322 8.81754 3.51372 8.52504L3.15222 8.15754C3.23172 11.4126 5.83498 14.0001 9 14.0001C10.7265 14.0001 12.2813 13.2351 13.3553 12.0051C13.6275 11.6976 14.1015 11.6601 14.4135 11.9376C14.7248 12.2076 14.7563 12.6801 14.484 12.9951C13.1408 14.5251 11.1833 15.5001 9 15.5001C4.97473 15.5001 1.73021 12.2076 1.65146 8.15004L1.28621 8.52504C0.996709 8.81754 0.521957 8.82504 0.225705 8.53254C-0.0705465 8.24754 -0.0757965 7.77504 0.213705 7.47504L1.86371 5.78753C2.00471 5.64503 2.19822 5.56253 2.39997 5.56253Z" fill="#FF6C54"/>
</svg>
