<svg width="20" height="21" viewBox="0 0 20 21" fill="none" xmlns="http://www.w3.org/2000/svg">
<g clip-path="url(#clip0_615_7011)">
<path d="M15.6199 11.3866C15.4639 15.0966 12.9873 17.4613 9.98486 18.5L9.99986 0.5C12.0665 3.4678 15.7764 7.668 15.6199 11.3866Z" fill="#90AB28"/>
<path d="M4.3798 11.3866C4.5358 15.0966 6.9828 17.4613 9.9852 18.5L9.9998 0.5C7.9332 3.4678 4.2233 7.668 4.3798 11.3866Z" fill="#A1BF2D"/>
<path d="M7.64941 4.04492L10.0101 7.65132V7.27422L7.64941 4.04492Z" fill="#B2CB45"/>
<path d="M13.2327 5.62354L10.0103 10.1264V9.69223L13.2327 5.62354Z" fill="#B2CB45"/>
<path d="M11.6327 2.99072L10.0103 5.32632V5.01272L11.6327 2.99072Z" fill="#B2CB45"/>
<path d="M6.13184 7.1665L10.0103 12.6231V12.1394L6.13184 7.1665Z" fill="#B2CB45"/>
<path d="M14.627 8.55762L10.0103 15.1442V14.6121L14.627 8.55762Z" fill="#B2CB45"/>
<path d="M4.84668 10.4998L10.0102 17.6923V17.1183L4.84668 10.4998Z" fill="#B2CB45"/>
<path d="M10 3.49976L9.625 20.4998H10.375L10 3.49976Z" fill="#B2CB45"/>
</g>
<defs>
<clipPath id="clip0_615_7011">
<rect width="20" height="20" fill="white" transform="translate(0 0.5)"/>
</clipPath>
</defs>
</svg>
