<svg width="17" height="17" viewBox="0 0 17 17" fill="none" xmlns="http://www.w3.org/2000/svg">
<g clip-path="url(#clip0_446_17990)">
<path d="M16.0239 10.1888C17.1815 4.98792 12.6247 0.263082 7.27326 1.17009C4.36823 -0.632525 0.5 1.40469 0.5 4.86072C0.5 5.66453 0.721802 6.41693 1.1074 7.06554C0.0317961 12.2786 4.62583 16.9352 9.97268 15.9664C13.7523 17.9648 17.9287 13.9792 16.0239 10.1888ZM10.9371 13.3254C9.53308 13.9028 7.22266 13.906 5.82484 13.1742C3.83143 12.1114 3.47723 9.71876 5.19684 9.71876C6.49285 9.71876 6.08265 11.2298 7.39126 11.8458C7.99206 12.1234 9.28347 12.1522 10.0341 11.646C10.7753 11.1498 10.7075 10.3694 10.3045 9.99656C9.23687 9.01096 6.18185 9.40256 4.78524 7.67714C4.17843 6.92874 4.06403 5.60813 4.80984 4.65052C6.10985 2.97771 9.92488 2.8759 11.5651 4.13912C13.0795 5.31113 12.6707 6.86674 11.4485 6.86674C9.97868 6.86674 10.7511 4.94352 8.37826 4.94352C6.65805 4.94352 5.98125 6.16673 7.19286 6.76214C8.83527 7.57794 13.0205 7.30554 13.0205 10.4934C13.0169 11.8196 12.2037 12.8086 10.9371 13.3254Z" fill="#03A9F4"/>
</g>
<defs>
<clipPath id="clip0_446_17990">
<rect width="16" height="16" fill="white" transform="translate(0.5 0.5)"/>
</clipPath>
</defs>
</svg>
