<svg width="20" height="21" viewBox="0 0 20 21" fill="none" xmlns="http://www.w3.org/2000/svg">
<g clip-path="url(#clip0_615_6899)">
<path d="M10.1118 6.11636C9.98658 6.11636 9.86143 6.07753 9.7553 5.99984L7.81842 4.58199C7.5494 4.38503 7.49096 4.00738 7.68791 3.73835C7.88483 3.46929 8.26248 3.41089 8.53155 3.60785L10.1119 4.76472L11.6922 3.60785C11.9613 3.41093 12.3389 3.46941 12.5358 3.73835C12.7328 4.00738 12.6743 4.38503 12.4053 4.58199L10.4684 5.99984C10.3622 6.07753 10.237 6.11636 10.1118 6.11636Z" fill="#73B7DD"/>
<path d="M7.6879 17.2616C7.49095 16.9926 7.54943 16.6149 7.81841 16.418L9.75528 15.0001C9.96755 14.8447 10.2561 14.8447 10.4684 15.0001L12.4053 16.418C12.6743 16.6149 12.7328 16.9926 12.5358 17.2616C12.3389 17.5306 11.9612 17.589 11.6922 17.3921L10.1119 16.2352L8.53157 17.3921C8.14997 17.645 7.80614 17.4231 7.6879 17.2616Z" fill="#73B7DD"/>
<path d="M6.27753 8.3302C6.21491 8.43864 6.1187 8.52762 5.99831 8.58071L3.80194 9.54915C3.4969 9.68364 3.14058 9.5454 3.00608 9.24036C2.87151 8.93532 3.0098 8.57907 3.31487 8.4445L5.1069 7.6543L4.89519 5.70727C4.85921 5.37579 5.09866 5.07798 5.43003 5.04192C5.76148 5.00587 6.05933 5.24536 6.09538 5.57677L6.35487 7.96313C6.36909 8.09387 6.34015 8.22177 6.27753 8.3302Z" fill="#73B7DD"/>
<path d="M14.7429 15.9579C14.4114 15.9939 14.1136 15.7544 14.0775 15.423L13.818 13.0366C13.7896 12.7751 13.9339 12.5252 14.1745 12.4191L16.3709 11.4506C16.676 11.3161 17.0323 11.4544 17.1668 11.7594C17.3013 12.0644 17.163 12.4208 16.858 12.5553L15.0659 13.3455L15.2777 15.2925C15.3059 15.7493 14.9419 15.9362 14.7429 15.9579Z" fill="#73B7DD"/>
<path d="M6.30286 12.7138C6.36548 12.8222 6.39443 12.9501 6.38021 13.0809L6.12072 15.4672C6.08466 15.7986 5.78681 16.0381 5.45536 16.002C5.12392 15.9661 4.88451 15.6682 4.92052 15.3367L5.13224 13.3897L3.34021 12.5995C3.03517 12.4649 2.89697 12.1086 3.03142 11.8036C3.16591 11.4986 3.52224 11.3603 3.82728 11.4948L6.02365 12.4633C6.144 12.5164 6.24025 12.6054 6.30286 12.7138Z" fill="#73B7DD"/>
<path d="M17.1414 9.19612C17.0069 9.50116 16.6506 9.63937 16.3455 9.50491L14.1492 8.53651C13.9084 8.43034 13.7642 8.1805 13.7926 7.91894L14.0522 5.53257C14.0882 5.20112 14.3861 4.96171 14.7175 4.99773C15.0489 5.03378 15.2884 5.33167 15.2524 5.66308L15.0406 7.61015L16.8327 8.4003C17.2423 8.60425 17.2221 9.01296 17.1414 9.19612Z" fill="#73B7DD"/>
<path d="M10.1119 6.11647C10.2371 6.11647 10.3623 6.0776 10.4684 5.99994L11.7725 5.04529V3.55908C11.7449 3.5733 11.7179 3.58904 11.6922 3.60795L10.1119 4.76482L8.55322 3.62381V5.11994L9.75537 5.99998C9.8615 6.07768 9.98666 6.11647 10.1119 6.11647Z" fill="#5E9CD3"/>
<path d="M9.75557 15.0001L8.50244 15.9174V17.4105C8.51217 17.4046 8.52197 17.3986 8.53178 17.3921L10.1121 16.2352L11.6924 17.3921C11.7019 17.3991 11.7119 17.4051 11.7217 17.4114V15.9174L10.4686 15.0001C10.2564 14.8447 9.96791 14.8447 9.75557 15.0001Z" fill="#5E9CD3"/>
<path d="M6.27748 8.33031C6.34006 8.22191 6.36904 8.09402 6.35482 7.96328L6.18861 6.43496L4.894 5.6875C4.89451 5.69418 4.89443 5.70074 4.89518 5.70742L5.10689 7.65445L3.31486 8.44465C3.29936 8.45148 3.28463 8.45926 3.27002 8.46719L4.56299 9.21371L5.99826 8.58082C6.11869 8.52773 6.21486 8.43875 6.27748 8.33031Z" fill="#5E9CD3"/>
<path d="M15.2777 15.2926L15.066 13.3456L16.8192 12.5725L15.5234 11.8245L14.1745 12.4192C13.9338 12.5254 13.7895 12.7752 13.818 13.0368L13.9944 14.659L15.2768 15.3993C15.2795 15.3655 15.28 15.33 15.2777 15.2926Z" fill="#5E9CD3"/>
<path d="M6.30275 12.7138C6.24018 12.6054 6.14389 12.5163 6.02354 12.4633L4.6458 11.8557L3.3501 12.6038L5.13221 13.3895L4.92049 15.3366C4.9176 15.3634 4.91709 15.3898 4.91768 15.4161L6.20713 14.6716L6.38014 13.0808C6.39432 12.95 6.36537 12.8222 6.30275 12.7138Z" fill="#5E9CD3"/>
<path d="M14.1491 8.53666L15.6712 9.20772L16.9474 8.47088C16.9135 8.44553 16.8755 8.42178 16.8326 8.40045L15.0406 7.61029L15.2443 5.73682L13.9486 6.4849L13.7926 7.91912C13.7641 8.18057 13.9084 8.43049 14.1491 8.53666Z" fill="#5E9CD3"/>
<path d="M17.5507 14.1564L11.3193 10.5587L17.5507 6.96097C17.8394 6.79429 17.9384 6.42515 17.7717 6.13644C17.605 5.84772 17.2359 5.7487 16.9471 5.9155L10.7157 9.51319V2.20007C10.7157 1.86671 10.4454 1.59644 10.1121 1.59644C9.7787 1.59644 9.50843 1.86671 9.50843 2.20007V9.51323L3.17507 5.85663C2.88628 5.68983 2.51714 5.78882 2.35054 6.07757C2.18386 6.36632 2.28277 6.73546 2.57148 6.9021L8.90484 10.5586L2.57144 14.2153C2.28273 14.3819 2.18382 14.7511 2.3505 15.0398C2.4623 15.2335 2.77648 15.4438 3.17503 15.2607L9.50839 11.6042V18.7996C9.50839 19.133 9.77866 19.4032 10.112 19.4032C10.4454 19.4032 10.7157 19.133 10.7157 18.7996V11.6042L16.9471 15.2019C17.3542 15.4295 17.6599 15.1746 17.7716 14.981C17.9384 14.6923 17.8394 14.3231 17.5507 14.1564Z" fill="#B3DBF4"/>
<path d="M13.5167 12.4657L14.1433 12.1894L11.3189 10.5587L14.2589 8.86126L13.5167 8.53392L13.5907 7.85306L10.7153 9.51317V6.12622L10.1117 6.5681L9.50803 6.12622V9.51321L6.63264 7.8531L6.70666 8.53392L5.96436 8.86126L8.90439 10.5587L6.08002 12.1894L6.70666 12.4657L6.61896 13.2722L9.50803 11.6042V14.8734L10.1117 14.4316L10.7153 14.8734V11.6042L13.6044 13.2722L13.5167 12.4657Z" fill="#94CBED"/>
<path d="M10.1122 2.76641C10.7381 2.76641 11.2454 2.25905 11.2454 1.6332C11.2454 1.00735 10.7381 0.5 10.1122 0.5C9.48636 0.5 8.979 1.00735 8.979 1.6332C8.979 2.25905 9.48636 2.76641 10.1122 2.76641Z" fill="#CAE7FC"/>
<path d="M10.1122 20.5C10.7381 20.5 11.2454 19.9927 11.2454 19.3668C11.2454 18.741 10.7381 18.2336 10.1122 18.2336C9.48636 18.2336 8.979 18.741 8.979 19.3668C8.979 19.9927 9.48636 20.5 10.1122 20.5Z" fill="#CAE7FC"/>
<path d="M2.32119 7.2293C2.94704 7.2293 3.45439 6.72194 3.45439 6.09609C3.45439 5.47024 2.94704 4.96289 2.32119 4.96289C1.69534 4.96289 1.18799 5.47024 1.18799 6.09609C1.18799 6.72194 1.69534 7.2293 2.32119 7.2293Z" fill="#CAE7FC"/>
<path d="M17.6791 16.096C18.305 16.096 18.8123 15.5886 18.8123 14.9628C18.8123 14.3369 18.305 13.8296 17.6791 13.8296C17.0532 13.8296 16.5459 14.3369 16.5459 14.9628C16.5459 15.5886 17.0532 16.096 17.6791 16.096Z" fill="#CAE7FC"/>
<path d="M2.32119 16.1551C2.94704 16.1551 3.45439 15.6477 3.45439 15.0219C3.45439 14.396 2.94704 13.8887 2.32119 13.8887C1.69534 13.8887 1.18799 14.396 1.18799 15.0219C1.18799 15.6477 1.69534 16.1551 2.32119 16.1551Z" fill="#CAE7FC"/>
<path d="M17.6791 7.28789C18.305 7.28789 18.8123 6.78054 18.8123 6.15469C18.8123 5.52884 18.305 5.02148 17.6791 5.02148C17.0532 5.02148 16.5459 5.52884 16.5459 6.15469C16.5459 6.78054 17.0532 7.28789 17.6791 7.28789Z" fill="#CAE7FC"/>
<path d="M8.24166 14.4889C8.0965 14.4889 7.95064 14.4506 7.81685 14.3734C7.52186 14.2031 7.36146 13.8868 7.3983 13.5482L7.57389 11.9336L6.08783 11.2784C5.77611 11.141 5.58252 10.844 5.58252 10.5034C5.58252 10.1627 5.77615 9.86571 6.08783 9.72829L7.57389 9.07305L7.3983 7.45848C7.36146 7.11985 7.52186 6.80368 7.81685 6.63333C8.11189 6.46301 8.46592 6.48216 8.74076 6.68341L10.0512 7.64278L11.3617 6.68341C11.6366 6.48223 11.9906 6.46305 12.2856 6.63333C12.5806 6.80364 12.741 7.11985 12.7042 7.45848L12.5286 9.07305L14.0146 9.72829C14.3263 9.86571 14.5199 10.1627 14.5199 10.5034C14.5199 10.844 14.3263 11.141 14.0146 11.2784L12.5286 11.9336L12.7042 13.5482C12.741 13.8868 12.5806 14.203 12.2856 14.3734C11.9905 14.5437 11.6365 14.5244 11.3617 14.3232L10.0512 13.364L8.74076 14.3232C8.59053 14.4332 8.41662 14.4889 8.24166 14.4889ZM8.2433 7.12235C8.18412 7.12235 8.13748 7.14516 8.11869 7.15602C8.08646 7.17466 7.98248 7.24676 7.99842 7.39321L8.19791 9.22743C8.21217 9.35821 8.14002 9.48313 8.01963 9.53622L6.33143 10.2806C6.19666 10.34 6.18619 10.4661 6.18619 10.5034C6.18619 10.5406 6.19666 10.6667 6.33143 10.7261L8.01963 11.4705C8.13998 11.5235 8.21213 11.6484 8.19791 11.7793L7.99842 13.6135C7.98248 13.7599 8.08646 13.832 8.11869 13.8507C8.15088 13.8693 8.26537 13.9232 8.38424 13.8363L9.87299 12.7465C9.97916 12.6687 10.1234 12.6687 10.2295 12.7465L11.7183 13.8363C11.8372 13.9234 11.9517 13.8693 11.9838 13.8507C12.0161 13.832 12.1201 13.7599 12.1041 13.6135L11.9046 11.7793C11.8904 11.6485 11.9625 11.5236 12.0829 11.4705L13.7711 10.7261C13.9059 10.6666 13.9163 10.5406 13.9163 10.5034C13.9163 10.4661 13.9059 10.34 13.7711 10.2806L12.0829 9.53622C11.9626 9.48317 11.8904 9.35821 11.9046 9.22743L12.1041 7.39321C12.1201 7.24676 12.0161 7.17466 11.9838 7.15602C11.9516 7.13739 11.8371 7.08344 11.7183 7.1704L10.2296 8.26024C10.1234 8.33798 9.97912 8.33798 9.87303 8.26024L8.38428 7.1704C8.33459 7.13411 8.28572 7.12235 8.2433 7.12235Z" fill="#CAE7FC"/>
</g>
<defs>
<clipPath id="clip0_615_6899">
<rect width="20" height="20" fill="white" transform="translate(0 0.5)"/>
</clipPath>
</defs>
</svg>
