<svg width="20" height="21" viewBox="0 0 20 21" fill="none" xmlns="http://www.w3.org/2000/svg">
<g clip-path="url(#clip0_615_6988)">
<path d="M1.95652 11.1523H0.652187C0.291914 11.1523 0 10.8604 0 10.5001C0 10.1398 0.291914 9.8479 0.652187 9.8479H1.95652C2.3168 9.8479 2.60871 10.1398 2.60871 10.5001C2.60871 10.8604 2.3168 11.1523 1.95652 11.1523Z" fill="#FFE14D"/>
<path d="M19.3476 11.1523H18.0433C17.683 11.1523 17.3911 10.8604 17.3911 10.5001C17.3911 10.1398 17.683 9.8479 18.0433 9.8479H19.3476C19.7077 9.8479 19.9998 10.1398 19.9998 10.5001C19.9998 10.8604 19.7077 11.1523 19.3476 11.1523Z" fill="#FFCC33"/>
<path d="M1.90488 15.8263C1.67941 15.8263 1.46031 15.7093 1.33953 15.5C1.15925 15.1881 1.26628 14.7892 1.57812 14.6092L2.70777 13.957C3.02007 13.7767 3.41878 13.8836 3.59855 14.1956C3.77882 14.5075 3.67179 14.9064 3.35996 15.0864L2.23035 15.7386C2.12757 15.798 2.0155 15.8263 1.90488 15.8263Z" fill="#FFE14D"/>
<path d="M16.9664 7.13069C16.7409 7.13069 16.5218 7.01373 16.401 6.8044C16.2208 6.49252 16.3278 6.09362 16.6396 5.91362L17.7693 5.26143C18.0818 5.081 18.4803 5.18838 18.66 5.50002C18.8403 5.8119 18.7333 6.2108 18.4214 6.3908L17.2918 7.04299C17.1891 7.1024 17.077 7.13069 16.9664 7.13069Z" fill="#FFCC33"/>
<path d="M5.32543 19.2477C5.21481 19.2477 5.10274 19.2195 5 19.1601C4.68813 18.98 4.58114 18.5811 4.76141 18.2693L5.4136 17.1397C5.59364 16.8282 5.99274 16.7206 6.30438 16.9011C6.61625 17.0811 6.72325 17.48 6.54297 17.7919L5.89079 18.9215C5.77 19.1306 5.5509 19.2477 5.32543 19.2477Z" fill="#FFE14D"/>
<path d="M14.0212 4.18652C13.9106 4.18652 13.7985 4.15832 13.6958 4.09883C13.3839 3.91879 13.2769 3.51992 13.4572 3.20805L14.1094 2.07844C14.2896 1.76699 14.6885 1.65976 15.0001 1.83984C15.312 2.01988 15.419 2.41875 15.2387 2.73062L14.5865 3.86023C14.4658 4.06934 14.2467 4.18652 14.0212 4.18652Z" fill="#FFCC33"/>
<path d="M14.6747 19.2478C14.4493 19.2478 14.2302 19.1309 14.1094 18.9216L13.4572 17.7919C13.2769 17.4801 13.384 17.0812 13.6958 16.9012C14.0087 16.7207 14.4068 16.8277 14.5866 17.1398L15.2388 18.2694C15.419 18.5812 15.312 18.9801 15.0002 19.1601C14.8974 19.2196 14.7853 19.2478 14.6747 19.2478Z" fill="#FFCC33"/>
<path d="M5.97892 4.18659C5.75345 4.18659 5.53435 4.06964 5.41357 3.8603L4.76138 2.73069C4.58115 2.41882 4.68814 2.01991 5.00002 1.83991C5.31271 1.65987 5.71103 1.76667 5.8908 2.0785L6.54298 3.20811C6.72326 3.51999 6.61623 3.9189 6.30439 4.09889C6.20162 4.15839 6.08955 4.18659 5.97892 4.18659Z" fill="#FFE14D"/>
<path d="M18.0947 15.8264C17.9841 15.8264 17.872 15.7982 17.7693 15.7387L16.6397 15.0865C16.3278 14.9065 16.2208 14.5076 16.4011 14.1957C16.5811 13.8843 16.98 13.7768 17.2918 13.9571L18.4214 14.6093C18.7333 14.7893 18.8403 15.1882 18.66 15.5001C18.5392 15.7092 18.3201 15.8264 18.0947 15.8264Z" fill="#FFCC33"/>
<path d="M3.03366 7.13072C2.92303 7.13072 2.81096 7.10252 2.70823 7.04303L1.57862 6.39084C1.26674 6.2108 1.15975 5.81193 1.34002 5.50006C1.5203 5.18842 1.91877 5.08096 2.2308 5.26146L3.36041 5.91365C3.67229 6.09369 3.77928 6.49256 3.59901 6.80443C3.47819 7.01353 3.25909 7.13072 3.03366 7.13072Z" fill="#FFE14D"/>
<path d="M10 16.587C6.64363 16.587 3.91309 13.8564 3.91309 10.5C3.91309 7.14363 6.64363 4.41309 10 4.41309C13.3564 4.41309 16.087 7.14363 16.087 10.5C16.087 13.8564 13.3564 16.587 10 16.587Z" fill="#FFC033"/>
<path d="M16.087 10.5C16.087 7.14363 13.3564 4.41309 10 4.41309V16.587C13.3564 16.587 16.087 13.8564 16.087 10.5Z" fill="#F9A926"/>
<path d="M9.99984 3.10871C9.63957 3.10871 9.34766 2.8168 9.34766 2.45652V1.15219C9.34766 0.791914 9.63957 0.5 9.99984 0.5C10.3601 0.5 10.652 0.791914 10.652 1.15219V2.45652C10.652 2.8168 10.3601 3.10871 9.99984 3.10871Z" fill="#FFE14D"/>
<path d="M10.6522 2.45652V1.15219C10.6522 0.791914 10.3603 0.5 10 0.5V3.10871C10.3603 3.10871 10.6522 2.8168 10.6522 2.45652Z" fill="#FFCC33"/>
<path d="M9.99984 20.5001C9.63957 20.5001 9.34766 20.2082 9.34766 19.8479V18.5435C9.34766 18.1833 9.63957 17.8914 9.99984 17.8914C10.3601 17.8914 10.652 18.1833 10.652 18.5435V19.8479C10.652 20.2082 10.3601 20.5001 9.99984 20.5001Z" fill="#FFE14D"/>
<path d="M10.6522 19.8479V18.5435C10.6522 18.1833 10.3603 17.8914 10 17.8914V20.5001C10.3603 20.5001 10.6522 20.2082 10.6522 19.8479Z" fill="#FFCC33"/>
</g>
<defs>
<clipPath id="clip0_615_6988">
<rect width="20" height="20" fill="white" transform="translate(0 0.5)"/>
</clipPath>
</defs>
</svg>
