<svg width="17" height="15" viewBox="0 0 17 15" fill="none" xmlns="http://www.w3.org/2000/svg">
<path d="M1.1472 6.79924L4.82568 8.17087L6.25965 12.7845C6.322 13.0963 6.69608 13.1586 6.94547 12.9716L9.00291 11.2882C9.18995 11.1012 9.50169 11.1012 9.75108 11.2882L13.4295 13.9691C13.6789 14.1562 14.053 14.0315 14.1154 13.7197L16.8586 0.6269C16.921 0.315166 16.6092 0.00343432 16.2975 0.128128L1.1472 5.98873C0.773118 6.11343 0.773118 6.67455 1.1472 6.79924ZM6.07262 7.48505L13.3048 3.05843C13.4295 2.99608 13.5542 3.18312 13.4295 3.24547L7.50659 8.79434C7.31954 8.98138 7.1325 9.23077 7.1325 9.5425L6.94547 11.0388C6.94547 11.2259 6.63373 11.2882 6.57138 11.0388L5.82321 8.29556C5.63617 7.98383 5.76088 7.60975 6.07262 7.48505Z" fill="#2F89CE"/>
</svg>
