<svg width="84" height="84" viewBox="0 0 84 84" fill="none" xmlns="http://www.w3.org/2000/svg">
<g clip-path="url(#clip0_322_9082)">
<path d="M45.7514 9.08409C47.3524 7.71303 49.831 8.37715 50.532 10.365L56.4865 27.2508C56.716 27.9016 57.1628 28.4533 57.7516 28.8131L73.0304 38.1483C74.8291 39.2472 74.9634 41.8097 73.2894 43.0907L59.0701 53.9718C58.5221 54.3912 58.1355 54.9866 57.9753 55.6578L53.8184 73.0734C53.329 75.1237 50.9334 76.0433 49.1979 74.8471L34.4553 64.6862C33.8872 64.2946 33.2014 64.1109 32.5135 64.1659L14.6657 65.5942C12.5646 65.7624 10.9497 63.7682 11.5511 61.748L16.6589 44.5871C16.8558 43.9257 16.8186 43.2167 16.5537 42.5796L9.68003 26.0466C8.87082 24.1003 10.2684 21.9483 12.3756 21.8959L30.2749 21.4507C30.9648 21.4336 31.6276 21.1791 32.1517 20.7303L45.7514 9.08409Z" fill="url(#paint0_linear_322_9082)"/>
<path d="M5.98653 27.5822L9.68003 26.0466L5.98653 27.5822L12.7237 43.7868L7.71727 60.6068C6.31418 65.3208 10.0821 69.9738 14.9848 69.5815L32.4782 68.1815L46.9279 78.1406C50.9776 80.9317 56.5672 78.7861 57.7091 74.0021L61.7834 56.9323L75.7202 46.2673C79.6262 43.2784 79.3128 37.2993 75.1159 34.735L60.1406 25.5852L54.3043 9.03478C52.6686 4.39637 46.8853 2.84675 43.1496 6.04589L29.82 17.4608L12.2761 17.8971C7.35929 18.0194 4.09838 23.0407 5.98653 27.5822ZM60.2588 25.9205L60.2584 25.9193L60.2588 25.9205Z" stroke="url(#paint1_linear_322_9082)" stroke-opacity="0.2" stroke-width="8"/>
</g>
<defs>
<linearGradient id="paint0_linear_322_9082" x1="4.2743" y1="3.29124" x2="67.3033" y2="0.265686" gradientUnits="userSpaceOnUse">
<stop stop-color="#AA429E"/>
<stop offset="1" stop-color="#8C2380"/>
</linearGradient>
<linearGradient id="paint1_linear_322_9082" x1="4.2743" y1="3.29124" x2="67.3033" y2="0.265686" gradientUnits="userSpaceOnUse">
<stop stop-color="#AA429E"/>
<stop offset="1" stop-color="#8C2380"/>
</linearGradient>
<clipPath id="clip0_322_9082">
<rect width="84" height="84" fill="white" transform="translate(0 0.000976562)"/>
</clipPath>
</defs>
</svg>
