<svg width="97" height="84" viewBox="0 0 97 84" fill="none" xmlns="http://www.w3.org/2000/svg">
<g clip-path="url(#clip0_635_7634)">
<path d="M62.3511 75.989L8.38631 61.4704C7.5378 61.2421 6.93767 60.4867 6.90713 59.6086L5.35448 14.9663C5.32389 14.0869 6.36208 13.5995 7.01908 14.1848L24.4062 29.6752L49.8381 12.7915C50.3432 12.4561 51.0282 12.6439 51.2918 13.1899L64.4474 40.4479L87.2597 35.7727C88.1217 35.5961 88.7752 36.5386 88.3075 37.2839L64.5648 75.1208C64.0977 75.865 63.1996 76.2173 62.3511 75.989Z" fill="#FFBF5E"/>
<path d="M65.0895 79.8013L4.10552 63.3942C3.67328 63.278 3.37096 62.8886 3.3654 62.441L2.68986 8.09083C2.67886 7.20545 3.73907 6.74364 4.37988 7.35468L23.4054 25.4964L51.9798 4.80599C52.4976 4.43105 53.2294 4.63159 53.4837 5.21812L67.4106 37.3356L92.9706 31.1891C93.8315 30.982 94.5169 31.9135 94.0631 32.6738L66.2081 79.3481C65.9787 79.7325 65.5218 79.9176 65.0895 79.8013Z" stroke="#FFBF5E" stroke-dasharray="5 5"/>
<path d="M35.0329 55.9127L40.1513 36.8106L42.4781 40.6144L35.6471 38.784L37.1213 33.2821L48.1252 36.2306L42.3276 57.8673L35.0329 55.9127Z" fill="white"/>
</g>
<defs>
<clipPath id="clip0_635_7634">
<rect width="96" height="84" fill="white" transform="translate(0.605469)"/>
</clipPath>
</defs>
</svg>
