<svg width="18" height="18" viewBox="0 0 18 18" fill="none" xmlns="http://www.w3.org/2000/svg">
<path d="M15.0081 3.14995C13.4277 1.57495 11.3203 0.699951 9.09595 0.699951C4.47156 0.699951 0.725223 4.43328 0.725223 9.04162C0.725223 10.5 1.13498 11.9583 1.83742 13.1833L0.666687 17.5L5.11547 16.3333C6.34474 16.975 7.69108 17.325 9.09595 17.325C13.7203 17.325 17.4667 13.5916 17.4667 8.98329C17.4082 6.82495 16.5886 4.72495 15.0081 3.14995ZM13.135 12.0166C12.9594 12.4833 12.1399 12.95 11.7301 13.0083C11.3789 13.0666 10.9106 13.0666 10.4423 12.95C10.1496 12.8333 9.73986 12.7166 9.27157 12.4833C7.16425 11.6083 5.81791 9.50828 5.70084 9.33328C5.58376 9.21662 4.82279 8.22495 4.82279 7.17495C4.82279 6.12495 5.34961 5.65828 5.52522 5.42495C5.70083 5.19162 5.93498 5.19162 6.11059 5.19162C6.22766 5.19162 6.40327 5.19162 6.52034 5.19162C6.63742 5.19162 6.81303 5.13328 6.98864 5.54162C7.16425 5.94995 7.574 6.99995 7.63254 7.05828C7.69108 7.17495 7.69108 7.29162 7.63254 7.40829C7.574 7.52495 7.51547 7.64162 7.39839 7.75828C7.28132 7.87495 7.16425 8.04995 7.10571 8.10828C6.98864 8.22495 6.87156 8.34162 6.98864 8.51662C7.10571 8.74995 7.51547 9.39162 8.15937 9.97495C8.97888 10.675 9.62279 10.9083 9.85693 11.025C10.0911 11.1416 10.2081 11.0833 10.3252 10.9666C10.4423 10.85 10.8521 10.3833 10.9691 10.15C11.0862 9.91662 11.2618 9.97495 11.4374 10.0333C11.613 10.0916 12.6667 10.6166 12.8423 10.7333C13.0764 10.85 13.1935 10.9083 13.2521 10.9666C13.3106 11.1416 13.3106 11.55 13.135 12.0166Z" fill="#48C95F"/>
</svg>
