<?xml version="1.0" encoding="utf-8"?><svg viewBox="0 0 97 84" xmlns="http://www.w3.org/2000/svg" xmlns:xlink="http://www.w3.org/1999/xlink"><style>:root>svg{display:none}:root>svg:target{display:block}</style><svg fill="none" viewBox="0 0 21 21" id="all" xmlns="http://www.w3.org/2000/svg"><g clip-path="url(#aaa)"><path d="M18.146 20.5H2.854a1.19 1.19 0 0 1-1.19-1.19v-1.654l17.671-3.21v4.865a1.19 1.19 0 0 1-1.189 1.19Z" fill="#D9D9D9"/><path d="M14.91 19.31H2.857a1.191 1.191 0 0 1-1.191-1.19V3.346c0-.658.533-1.191 1.19-1.191h15.29c.657 0 1.19.533 1.19 1.191V18.12c0 .781-.492 1.192-1.227 1.192h-3.197Z" fill="#EBEDF2"/><path d="M19.335 3.345v3.06H1.665v-3.06c0-.656.532-1.189 1.19-1.189h15.291c.657 0 1.19.533 1.19 1.19Z" fill="#AA429E"/><path d="M5.031 4.232h-.583a.905.905 0 0 1-.905-.904V2.156h.595v1.172c0 .17.139.31.31.31.164 0 .747.594.583.594ZM15.832 4.232h-.583a.905.905 0 0 1-.904-.904V2.156h.594v1.172c0 .17.14.31.31.31.164 0 .583.43.583.594Z" fill="#701065"/><path d="M5.477 2.156v-.752a.31.31 0 0 0-.31-.31h-.136a.31.31 0 0 0-.31.31v1.924c0 .17.14.31.31.31a.297.297 0 0 1 0 .594.905.905 0 0 1-.904-.904V1.404c0-.498.406-.904.904-.904h.137c.498 0 .904.406.904.904v.752h-.595ZM16.278 2.156v-.752a.31.31 0 0 0-.31-.31h-.136a.31.31 0 0 0-.31.31v1.924c0 .17.14.31.31.31a.297.297 0 0 1 0 .594.905.905 0 0 1-.904-.904V1.404c0-.498.406-.904.904-.904h.137c.498 0 .904.406.904.904v.752h-.595Z" fill="#554E56"/><path d="m10.76 9.405.957 1.94a.29.29 0 0 0 .22.158l2.139.31a.29.29 0 0 1 .161.496l-1.549 1.51a.29.29 0 0 0-.083.257l.365 2.13a.29.29 0 0 1-.42.307l-1.915-1.006a.29.29 0 0 0-.27 0L8.45 16.513a.29.29 0 0 1-.421-.306l.365-2.131a.29.29 0 0 0-.083-.257l-1.549-1.51a.29.29 0 0 1 .161-.495l2.14-.311a.29.29 0 0 0 .219-.159l.957-1.939a.29.29 0 0 1 .52 0Z" fill="#FF6C54"/></g><defs><clipPath id="aaa"><path fill="#fff" transform="translate(.5 .5)" d="M0 0h20v20H0z"/></clipPath></defs></svg><svg fill="none" viewBox="0 0 14 9" id="arrow-big" xmlns="http://www.w3.org/2000/svg"><path fill-rule="evenodd" clip-rule="evenodd" d="M9.301.14a.5.5 0 0 1 .707.013l3.852 4a.5.5 0 0 1 0 .694l-3.852 4a.5.5 0 0 1-.72-.694L12.324 5H.5a.5.5 0 0 1 0-1h11.824L9.288.847A.5.5 0 0 1 9.3.14Z" fill="#fff"/></svg><svg fill="none" viewBox="0 0 10 7" id="arrow-down" xmlns="http://www.w3.org/2000/svg"><path d="m9 1.5-4 4-4-4" stroke="#FF6C54" stroke-width="2" stroke-linecap="round" stroke-linejoin="round"/></svg><svg fill="none" viewBox="0 0 6 10" id="arrow-r" xmlns="http://www.w3.org/2000/svg"><path d="m1 9 4-4-4-4" stroke="#AA429E" stroke-width="2" stroke-linecap="round" stroke-linejoin="round"/></svg><svg fill="none" viewBox="0 0 60 56" id="bonus1" xmlns="http://www.w3.org/2000/svg"><path d="M3.303 7.011 49.877.466A3.82 3.82 0 0 1 54.2 3.724l4.841 34.443a3.82 3.82 0 0 1-3.258 4.324L9.21 49.036a3.82 3.82 0 0 1-4.324-3.258L.046 11.335A3.82 3.82 0 0 1 3.302 7.01Z" fill="#FF6C54"/><path d="M12.194 9.82c-1.673.234-2.009 1.466-1.878 2.401.327 2.323-.49 3.522-3.019 3.877-1.236.174-1.891 1.158-1.711 2.438L8.31 37.93c.18 1.28 1.081 2.046 2.317 1.872 2.529-.355 3.645.572 3.971 2.895.132.934.795 2.026 2.467 1.79l29.911-4.203c1.673-.235 2.01-1.467 1.878-2.401-.327-2.324.49-3.522 3.019-3.878 1.236-.173 1.891-1.157 1.711-2.438L50.86 12.173c-.18-1.28-1.08-2.045-2.317-1.872-2.529.356-3.645-.571-3.971-2.894-.132-.935-.795-2.026-2.467-1.791L12.194 9.819Z" fill="#fff"/><path fill-rule="evenodd" clip-rule="evenodd" d="m12.03 13.438.06.434.868-.122-.061-.433-.867.121Zm2.167-.304.06.433.902-.127-.06-.433-.902.127Zm2.201-.31.061.434.867-.122-.06-.433-.868.122Zm2.166-.304.061.433.867-.121-.06-.434-.868.122Zm2.166-.304.061.433.867-.122-.061-.433-.867.122Zm2.167-.305.06.433.868-.121-.061-.434-.867.122Zm2.166-.304.06.433.867-.122-.06-.433-.867.122Zm2.166-.305.06.434.867-.122-.06-.433-.867.121Zm2.167-.304.06.433.867-.122-.06-.433-.867.122Zm2.165-.304.061.433.867-.122-.06-.433-.868.122Zm2.166-.305.061.433.867-.121-.06-.434-.867.122Zm2.167-.304.061.433.867-.122-.061-.433-.867.122Zm2.166-.305.061.433.867-.121-.061-.434-.867.122Zm2.166-.304.061.433.867-.122-.061-.433-.867.122Zm2.167-.305.06.433.867-.121-.06-.434-.867.122Z" fill="#EBEDF2"/><path d="M21.627 16.364a.437.437 0 1 0 .122.867l13.864-1.948a.439.439 0 0 0-.122-.867l-13.864 1.948ZM40.707 17.66a.437.437 0 1 0 .122.866l3.509-.493a.439.439 0 0 0-.122-.867l-3.51.493ZM13.348 21.505a.438.438 0 0 0 .121.866l24.002-3.373a.438.438 0 0 0-.121-.867l-24.002 3.374ZM19.783 24.798a.437.437 0 0 0 .122.866l25.011-3.515a.439.439 0 0 0-.121-.867l-25.012 3.516ZM13.926 25.62a.438.438 0 0 0 .122.867l2.933-.412a.437.437 0 1 0-.122-.867l-2.933.412Z" fill="#565656"/><path d="m24.369 35.087 2.263 16.107c.266 1.89 2.192 2.357 3.647.871l2.705-2.834 3.38 1.979c1.809 1.027 3.532.048 3.266-1.843l-2.264-16.106-12.997 1.826Z" fill="#AA429E"/><path fill-rule="evenodd" clip-rule="evenodd" d="m15.85 40.624.062.434.866-.122-.06-.433-.867.121Zm2.168-.304.06.433.902-.127-.061-.433-.901.127Zm2.201-.31.061.434.867-.122-.061-.433-.867.122Zm2.166-.304.061.433.867-.121-.061-.434-.867.122Zm17.33-2.435.061.433.867-.122-.061-.433-.867.122Zm2.166-.305.06.434.867-.122-.06-.434-.867.122Zm2.166-.304.06.433.867-.122-.06-.433-.867.122Zm2.167-.305.06.434.867-.122-.06-.433-.867.121Z" fill="#EBEDF2"/><path d="M38.638 35.238a7.547 7.547 0 1 1-14.947 2.1 7.547 7.547 0 0 1 14.947-2.1Z" fill="#F6B93B"/><path d="M33.801 35.917a2.663 2.663 0 1 1-5.273.742 2.663 2.663 0 0 1 5.273-.742Z" fill="#FF6C54"/></svg><svg fill="none" viewBox="0 0 11 8" id="check" xmlns="http://www.w3.org/2000/svg"><path d="m1 4 3.045 3L10 1" stroke="#fff" stroke-width="2" stroke-linecap="round" stroke-linejoin="round"/></svg><svg fill="none" viewBox="0 0 24 24" id="eye" xmlns="http://www.w3.org/2000/svg"><path d="m4.447 13.723-.367-.437a2 2 0 0 1 0-2.572l.367-.437c4.787-5.703 10.319-5.703 15.106 0l.367.437a2 2 0 0 1 0 2.572l-.367.437c-4.787 5.703-10.319 5.703-15.106 0Z" stroke="#AA429E" stroke-width="1.75" stroke-linecap="round"/><path d="M12 15a3 3 0 1 0 0-6 3 3 0 0 0 0 6Z" stroke="#AA429E" stroke-width="1.75" stroke-linecap="round"/></svg><svg fill="none" viewBox="0 0 24 24" id="eye-hidden" xmlns="http://www.w3.org/2000/svg"><path d="M12 6c2.58 0 5.16 1.426 7.553 4.277l.367.437a2 2 0 0 1 0 2.572l-.367.437c-.51.607-1.028 1.15-1.553 1.628M8.5 7c-1.426.702-2.711 1.678-4.053 3.277l-.367.437a2 2 0 0 0 0 2.572l.367.437c3.454 4.115 7.296 5.26 10.966 3.437L8.5 7Z" stroke="#AA429E" stroke-width="1.75" stroke-linecap="round"/><path d="m6 3 12 18M10.341 9.5A3 3 0 0 0 12 15c.658 0 1.005-.14 1.5-.5l-3.159-5ZM14 9.764v0c-.115-.103-.244.025-.16.154l.775 1.173c.091.137.27.065.214-.091v0A3.004 3.004 0 0 0 14 9.764Z" stroke="#AA429E" stroke-width="1.75" stroke-linecap="round"/></svg><svg fill="none" viewBox="0 0 40 40" id="insta" xmlns="http://www.w3.org/2000/svg"><circle cx="20" cy="20" r="20" fill="url(#aia)"/><path d="M26.58 12H14.42C13.045 12 12 13.046 12 14.42v12.16c0 1.374 1.046 2.42 2.42 2.42h12.16c1.374 0 2.42-1.046 2.42-2.42V14.42c0-1.374-1.046-2.42-2.42-2.42ZM20.5 25.6c2.811 0 5.1-2.223 5.1-4.904 0-.458-.065-.98-.196-1.373h1.438v6.93a.655.655 0 0 1-.653.655H14.812a.655.655 0 0 1-.654-.654v-6.996h1.504a4.98 4.98 0 0 0-.197 1.373C15.4 23.377 17.69 25.6 20.5 25.6Zm0-1.962c-1.83 0-3.27-1.438-3.27-3.203 0-1.766 1.44-3.204 3.27-3.204s3.27 1.438 3.27 3.204c0 1.83-1.44 3.204-3.27 3.204Zm6.277-6.996c0 .393-.327.72-.72.72h-1.83a.726.726 0 0 1-.72-.72v-1.765c0-.392.328-.72.72-.72h1.83c.393 0 .72.328.72.72v1.765Z" fill="#fff"/><defs><linearGradient id="aia" x1="8.5" y1="35.5" x2="35" y2="8" gradientUnits="userSpaceOnUse"><stop stop-color="#EEA054"/><stop offset=".503" stop-color="#D64763"/><stop offset="1" stop-color="#B62A99"/></linearGradient></defs></svg><svg fill="none" viewBox="0 0 40 40" id="instagramm" xmlns="http://www.w3.org/2000/svg"><circle cx="20" cy="20" r="20" fill="#FF6C54"/><path d="M26.58 12H14.42C13.045 12 12 13.046 12 14.42v12.16c0 1.374 1.046 2.42 2.42 2.42h12.16c1.374 0 2.42-1.046 2.42-2.42V14.42c0-1.374-1.046-2.42-2.42-2.42ZM20.5 25.6c2.811 0 5.1-2.223 5.1-4.904 0-.458-.065-.98-.196-1.373h1.438v6.93a.655.655 0 0 1-.653.655H14.812a.655.655 0 0 1-.654-.654v-6.996h1.504a4.98 4.98 0 0 0-.197 1.373C15.4 23.377 17.69 25.6 20.5 25.6Zm0-1.962c-1.83 0-3.27-1.438-3.27-3.203 0-1.766 1.44-3.204 3.27-3.204s3.27 1.438 3.27 3.204c0 1.83-1.44 3.204-3.27 3.204Zm6.277-6.996c0 .393-.327.72-.72.72h-1.83a.726.726 0 0 1-.72-.72v-1.765c0-.392.328-.72.72-.72h1.83c.393 0 .72.328.72.72v1.765Z" fill="#fff"/></svg><svg fill="none" viewBox="0 0 24 24" id="invalid" xmlns="http://www.w3.org/2000/svg"><path fill-rule="evenodd" clip-rule="evenodd" d="M12.852 5.498a.964.964 0 0 0-1.704 0L4.995 17.12a.964.964 0 0 0 .852 1.416h12.306a.964.964 0 0 0 .852-1.416L12.852 5.498Zm-3.03-.701c.926-1.749 3.43-1.749 4.356 0l6.152 11.622c.87 1.64-.32 3.617-2.177 3.617H5.847c-1.857 0-3.047-1.976-2.178-3.617L9.822 4.797Z" fill="#F90A0A"/><path fill-rule="evenodd" clip-rule="evenodd" d="M12 7.821a.75.75 0 0 1 .75.75v4.715a.75.75 0 0 1-1.5 0V8.57a.75.75 0 0 1 .75-.75Z" fill="#F90A0A"/><path d="M12.75 16.282a.75.75 0 1 1-1.5 0 .75.75 0 0 1 1.5 0Z" fill="#F90A0A"/></svg><svg fill="none" viewBox="0 0 26 27" id="lk" xmlns="http://www.w3.org/2000/svg"><path d="M13 26c6.904 0 12.5-5.596 12.5-12.5S19.904 1 13 1 .5 6.596.5 13.5 6.096 26 13 26Z" stroke="#F2428B"/><path d="M21.53 19.812a10.68 10.68 0 0 0-3.77-3.135 10.627 10.627 0 0 0-9.521-.003c-1.478.74-2.716 1.815-3.706 3.138.985 1.33 2.22 2.411 3.699 3.156a10.593 10.593 0 0 0 9.53.003 10.677 10.677 0 0 0 3.769-3.159ZM13 14.563a3.9 3.9 0 1 0 0-7.8 3.9 3.9 0 0 0 0 7.8Z" fill="#F2428B"/></svg><svg fill="none" viewBox="0 0 20 21" id="maple" xmlns="http://www.w3.org/2000/svg"><g clip-path="url(#ama)"><g clip-path="url(#amb)"><path d="m10 4.5-.375 15h.75L10 4.5Z" fill="#DD5347"/><path d="M17.19 16.053c-1.306-.435-2.617.083-2.96.901-.228.55.44 1.363.753 1.546-.802 0-3.561 0-4.983-2.318 1.43-1.134 10-3.04 10-3.04-.752.361-3.466 1.787-2.81 2.91Z" fill="#DB392F"/><path d="M16.606 8.558c.105 1.043.897 1.184 1.48 1.21-.544.322-2.25 1.642-1.782 2.858.302.785 2.992.633 3.696.517 0 0-8.57 1.906-10 3.04C11.154 13.4 17.802 5.42 17.852 5.316c-.291.52-1.361 2.098-1.246 3.24Z" fill="#DD5347"/><path d="M11.132 4.433c.575.216 1.033-.188 1.3-.448-.323.53-1.288 3.14-.26 3.892.919.67 2.394-1.406 2.394-1.406.401 1.03 1.597.464 3.287-1.154-.05.103-6.7 8.083-7.853 10.865V1.5c.218 1.777.608 2.737 1.132 2.933Z" fill="#E06A5D"/><path d="M2.81 16.053c1.306-.435 2.617.083 2.96.901.229.55-.44 1.363-.753 1.546.802 0 3.562 0 4.983-2.318-1.43-1.134-10-3.04-10-3.04.752.361 3.466 1.787 2.81 2.91Z" fill="#DD5347"/><path d="M3.394 8.558c-.105 1.043-.897 1.184-1.48 1.21.544.322 2.25 1.642 1.782 2.858-.302.785-2.992.633-3.696.516 0 0 8.57 1.906 10 3.04C8.846 13.4 2.198 5.42 2.148 5.317c.291.52 1.361 2.098 1.246 3.24Z" fill="#E06A5D"/><path d="M8.868 4.433c-.575.216-1.033-.188-1.3-.448.323.53 1.288 3.14.26 3.892-.918.67-2.393-1.406-2.393-1.406-.401 1.03-1.597.464-3.287-1.154.05.103 6.698 8.083 7.852 10.865V1.5c-.218 1.777-.608 2.737-1.132 2.933Z" fill="#E28072"/></g></g><defs><clipPath id="ama"><path fill="#fff" transform="translate(0 .5)" d="M0 0h20v20H0z"/></clipPath><clipPath id="amb"><path fill="#fff" transform="translate(0 .5)" d="M0 0h20v20H0z"/></clipPath></defs></svg><svg fill="none" viewBox="0 0 16 19" id="marker" xmlns="http://www.w3.org/2000/svg"><path d="M14.282 4.28A6.945 6.945 0 0 0 8.788.512a7.892 7.892 0 0 0-1.576 0A6.946 6.946 0 0 0 1.718 4.28a7.504 7.504 0 0 0 1.028 8.26l4.717 5.734a.695.695 0 0 0 1.073 0l4.718-5.735a7.504 7.504 0 0 0 1.028-8.259ZM8 10.194A2.778 2.778 0 1 1 8 4.64a2.778 2.778 0 0 1 0 5.555Z" fill="#AA429E"/></svg><svg fill="none" viewBox="0 0 14 18" id="marker-stroke" xmlns="http://www.w3.org/2000/svg"><path fill-rule="evenodd" clip-rule="evenodd" d="M6.834 1.519a5.313 5.313 0 0 0-5.315 5.315c0 2.149.957 4.237 2.143 5.976 1.152 1.7 2.473 3.007 3.172 3.645.699-.638 2.02-1.944 3.172-3.645 1.186-1.739 2.143-3.827 2.143-5.976a5.313 5.313 0 0 0-5.315-5.315ZM0 6.834a6.834 6.834 0 0 1 13.668 0c0 2.582-1.14 4.966-2.406 6.834-1.272 1.868-2.723 3.288-3.456 3.956a1.445 1.445 0 0 1-1.944 0c-.733-.668-2.184-2.088-3.456-3.956C1.14 11.8 0 9.416 0 6.834Zm6.834-1.519c-.838 0-1.519.684-1.519 1.519 0 .835.68 1.519 1.519 1.519.838 0 1.519-.684 1.519-1.519 0-.835-.68-1.519-1.519-1.519ZM3.797 6.834a3.037 3.037 0 1 1 6.074 0 3.037 3.037 0 0 1-6.074 0Z" fill="#AA429E"/></svg><svg fill="none" viewBox="0 0 20 21" id="people" xmlns="http://www.w3.org/2000/svg"><g clip-path="url(#apa)"><path fill-rule="evenodd" clip-rule="evenodd" d="M17.369 6.038c0-1.4-1.098-2.538-2.447-2.538-1.35 0-2.448 1.139-2.448 2.538 0 1.4 1.098 2.539 2.447 2.539h-.815c-1.8 0-3.263 1.518-3.263 3.384v4.693c0 .468.365.846.816.846h6.525c.451 0 .816-.378.816-.846V11.96c0-1.866-1.463-3.384-3.263-3.384h-.816c1.35 0 2.448-1.139 2.448-2.539Z" fill="#FF6C54"/><path d="M7.526 9.885c0-1.4-1.098-2.539-2.447-2.539-1.35 0-2.448 1.139-2.448 2.539 0 1.4 1.098 2.538 2.448 2.538 1.349 0 2.447-1.139 2.447-2.538ZM5.894 12.423H4.263c-1.8 0-3.263 1.518-3.263 3.385v.846c0 .468.365.846.816.846H8.34c.451 0 .816-.378.816-.846v-.846c0-1.867-1.463-3.385-3.263-3.385Z" fill="#AA429E"/><g opacity=".1" fill-rule="evenodd" clip-rule="evenodd" fill="#0B1625"><path d="M5.079 7.346c1.349 0 2.447 1.139 2.447 2.539 0 1.4-1.098 2.538-2.447 2.538V7.346ZM17.369 6.038c0-1.372-1.056-2.494-2.369-2.537l-.079 5.076V17.5h3.263c.451 0 .816-.378.816-.846V11.96c0-1.866-1.463-3.384-3.263-3.384h-.816c1.35 0 2.448-1.139 2.448-2.539ZM5.079 12.423h.815c1.8 0 3.263 1.518 3.263 3.385v.846c0 .468-.365.846-.816.846H5.08v-5.077Z"/></g></g><defs><clipPath id="apa"><path fill="#fff" transform="translate(0 .5)" d="M0 0h20v20H0z"/></clipPath></defs></svg><svg fill="none" viewBox="0 0 18 16" id="refresh" xmlns="http://www.w3.org/2000/svg"><path fill-rule="evenodd" clip-rule="evenodd" d="M9 2a5.763 5.763 0 0 0-4.355 1.995.75.75 0 0 1-1.129-.99C4.859 1.475 6.816.5 9 .5c4.025 0 7.27 3.293 7.349 7.35l.365-.375a.75.75 0 0 1 1.072 1.05l-1.65 1.688a.757.757 0 0 1-.536.225.757.757 0 0 1-.536-.225l-1.65-1.688a.75.75 0 0 1 1.072-1.05l.362.368C14.768 4.588 12.165 2 9 2ZM2.4 5.563c.202 0 .395.082.536.225l1.65 1.687a.75.75 0 0 1-1.073 1.05l-.36-.367C3.231 11.413 5.834 14 9 14a5.763 5.763 0 0 0 4.355-1.995.75.75 0 0 1 1.129.99C13.141 14.525 11.184 15.5 9 15.5c-4.025 0-7.27-3.292-7.349-7.35l-.365.375a.75.75 0 0 1-1.072-1.05l1.65-1.687a.757.757 0 0 1 .536-.225Z" fill="#FF6C54"/></svg><svg fill="none" viewBox="0 0 20 21" id="sheet" xmlns="http://www.w3.org/2000/svg"><g clip-path="url(#ara)"><path d="M15.62 11.387c-.156 3.71-2.633 6.074-5.635 7.113L10 .5c2.066 2.968 5.776 7.168 5.62 10.887Z" fill="#90AB28"/><path d="M4.38 11.387c.156 3.71 2.603 6.074 5.605 7.113L10 .5C7.933 3.468 4.223 7.668 4.38 11.387Z" fill="#A1BF2D"/><path d="m7.65 4.045 2.36 3.606v-.377l-2.36-3.23ZM13.233 5.624l-3.223 4.502v-.434l3.223-4.068ZM11.633 2.99 10.01 5.327v-.313l1.623-2.022ZM6.132 7.167l3.878 5.456v-.484L6.132 7.167ZM14.627 8.558l-4.617 6.586v-.532l4.617-6.054ZM4.847 10.5l5.163 7.192v-.574L4.847 10.5Z" fill="#B2CB45"/><path d="m10 3.5-.375 17h.75L10 3.5Z" fill="#B2CB45"/></g><defs><clipPath id="ara"><path fill="#fff" transform="translate(0 .5)" d="M0 0h20v20H0z"/></clipPath></defs></svg><svg fill="none" viewBox="0 0 20 21" id="snow" xmlns="http://www.w3.org/2000/svg"><g clip-path="url(#asa)"><path d="M10.112 6.116A.603.603 0 0 1 9.755 6L7.818 4.582a.604.604 0 1 1 .714-.974l1.58 1.157 1.58-1.157a.604.604 0 0 1 .713.974L10.468 6a.603.603 0 0 1-.356.116ZM7.688 17.262a.604.604 0 0 1 .13-.844L9.755 15a.604.604 0 0 1 .713 0l1.937 1.418a.604.604 0 1 1-.713.974l-1.58-1.157-1.58 1.157a.613.613 0 0 1-.844-.13ZM6.278 8.33a.603.603 0 0 1-.28.25l-2.196.97a.604.604 0 0 1-.487-1.106l1.792-.79-.212-1.947a.604.604 0 0 1 1.2-.13l.26 2.386a.603.603 0 0 1-.077.367ZM14.743 15.958a.604.604 0 0 1-.665-.535l-.26-2.386a.604.604 0 0 1 .357-.618l2.196-.968a.604.604 0 0 1 .487 1.104l-1.792.79.212 1.947a.613.613 0 0 1-.535.666ZM6.303 12.714a.603.603 0 0 1 .077.367l-.26 2.386a.604.604 0 1 1-1.2-.13l.212-1.947-1.792-.79a.604.604 0 0 1 .487-1.105l2.197.968c.12.053.216.142.279.25ZM17.141 9.196a.604.604 0 0 1-.795.309l-2.197-.968a.604.604 0 0 1-.356-.618l.26-2.386a.604.604 0 1 1 1.2.13L15.04 7.61l1.792.79c.41.204.39.613.308.796Z" fill="#73B7DD"/><path d="M10.112 6.116c.125 0 .25-.038.356-.116l1.305-.955V3.56a.59.59 0 0 0-.08.049l-1.581 1.157-1.559-1.141V5.12L9.755 6a.603.603 0 0 0 .357.116ZM9.756 15l-1.254.917v1.493a.858.858 0 0 0 .03-.018l1.58-1.157 1.58 1.157.03.02v-1.495L10.469 15a.604.604 0 0 0-.713 0ZM6.277 8.33a.603.603 0 0 0 .078-.367l-.166-1.528-1.295-.747.001.02.212 1.946-1.792.79a.608.608 0 0 0-.045.023l1.293.747 1.435-.633a.603.603 0 0 0 .28-.25ZM15.278 15.293l-.212-1.947 1.753-.774-1.296-.747-1.348.594a.604.604 0 0 0-.357.618l.176 1.622 1.283.74a.755.755 0 0 0 0-.106ZM6.303 12.714a.602.602 0 0 0-.28-.25l-1.377-.608-1.296.748 1.782.786-.212 1.947a.61.61 0 0 0-.002.08l1.29-.745.172-1.591a.603.603 0 0 0-.077-.367ZM14.15 8.537l1.521.67 1.276-.736a.744.744 0 0 0-.114-.07l-1.792-.79.203-1.874-1.295.748-.156 1.434a.604.604 0 0 0 .356.618Z" fill="#5E9CD3"/><path d="m17.55 14.156-6.23-3.597 6.23-3.598a.604.604 0 1 0-.603-1.046l-6.231 3.598V2.2a.604.604 0 0 0-1.208 0v7.313L3.175 5.857a.603.603 0 1 0-.604 1.045l6.334 3.657-6.334 3.656a.604.604 0 0 0-.22.825c.111.194.425.404.824.22l6.333-3.656V18.8a.604.604 0 1 0 1.208 0v-7.196l6.231 3.598c.407.228.713-.027.825-.221a.604.604 0 0 0-.221-.825Z" fill="#B3DBF4"/><path d="m13.517 12.466.626-.277-2.824-1.63 2.94-1.698-.742-.327.074-.68-2.876 1.66V6.125l-.603.442-.604-.442v3.387l-2.875-1.66.074.68-.743.328 2.94 1.698-2.824 1.63.627.277-.088.806 2.889-1.668v3.27l.604-.442.603.441v-3.269l2.89 1.668-.088-.806Z" fill="#94CBED"/><path d="M10.112 2.766a1.133 1.133 0 1 0 0-2.266 1.133 1.133 0 0 0 0 2.266ZM10.112 20.5a1.133 1.133 0 1 0 0-2.266 1.133 1.133 0 0 0 0 2.266ZM2.321 7.23a1.133 1.133 0 1 0 0-2.267 1.133 1.133 0 0 0 0 2.266ZM17.68 16.096a1.133 1.133 0 1 0 0-2.266 1.133 1.133 0 0 0 0 2.266ZM2.321 16.155a1.133 1.133 0 1 0 0-2.266 1.133 1.133 0 0 0 0 2.266ZM17.68 7.288a1.133 1.133 0 1 0 0-2.266 1.133 1.133 0 0 0 0 2.266ZM8.242 14.489a.848.848 0 0 1-.425-.116.837.837 0 0 1-.419-.825l.176-1.614-1.486-.656a.837.837 0 0 1-.505-.775c0-.34.193-.637.505-.775l1.486-.655-.176-1.615a.837.837 0 0 1 .419-.825.837.837 0 0 1 .924.05l1.31.96 1.31-.96a.837.837 0 0 1 .925-.05c.295.17.455.487.418.825l-.175 1.615 1.486.655a.837.837 0 0 1 .505.775c0 .341-.194.638-.505.775l-1.486.656.175 1.614a.837.837 0 0 1-.418.825.837.837 0 0 1-.924-.05l-1.31-.959-1.311.96a.843.843 0 0 1-.5.165Zm.001-7.367a.257.257 0 0 0-.124.034.24.24 0 0 0-.12.237l.199 1.834a.302.302 0 0 1-.178.31l-1.689.744a.24.24 0 0 0-.145.222c0 .038.01.164.145.223l1.689.744c.12.053.192.178.178.31l-.2 1.834a.24.24 0 0 0 .12.237.24.24 0 0 0 .266-.015l1.489-1.09a.301.301 0 0 1 .357 0l1.488 1.09a.24.24 0 0 0 .266.015.24.24 0 0 0 .12-.238l-.2-1.834a.302.302 0 0 1 .179-.309l1.688-.744a.24.24 0 0 0 .145-.223.24.24 0 0 0-.145-.222l-1.688-.745a.302.302 0 0 1-.178-.309l.2-1.834a.24.24 0 0 0-.121-.237.24.24 0 0 0-.266.014L10.23 8.26a.302.302 0 0 1-.357 0L8.384 7.17a.235.235 0 0 0-.14-.048Z" fill="#CAE7FC"/></g><defs><clipPath id="asa"><path fill="#fff" transform="translate(0 .5)" d="M0 0h20v20H0z"/></clipPath></defs></svg><svg fill="none" viewBox="0 0 72 72" id="sticker" xmlns="http://www.w3.org/2000/svg"><path d="M9.085 59.644s-4.257 4.976-4.869 5.753c-.61.778-.166 3.112-.166 3.112l6.765-6.98s1.64-3.416-1.73-1.886Z" fill="#fff"/><path d="M54.786 3.517c-.995.006-1.915.223-2.673.764L14.587 46.755l7.073 11.16L64.672 18.79l3.465-4.548s-2.165-7.362-4.764-8.229c-1.949-.65-5.603-2.517-8.587-2.496Z" fill="#FF4E79"/><path d="M21.66 57.914s-.255-.687-.471-1.552a10.703 10.703 0 0 1-.258-1.365 5.45 5.45 0 0 1-.038-.663c.002-.21.02-.408.06-.585.039-.176.095-.35.164-.517.069-.168.15-.33.238-.485.177-.31.383-.59.58-.825.393-.472.747-.766.747-.766s-.143-.01-.364-.048a5.03 5.03 0 0 1-.835-.217 3.748 3.748 0 0 1-.474-.207 2.772 2.772 0 0 1-.45-.29 2.049 2.049 0 0 1-.374-.39 1.722 1.722 0 0 1-.254-.499c-.059-.186-.07-.4-.044-.63a3.47 3.47 0 0 1 .177-.736c.088-.256.202-.52.331-.782.129-.261.273-.521.42-.77a17.078 17.078 0 0 1 1.238-1.797s-.943.629-2.672 1.729a3.097 3.097 0 0 1-.702.326 4.47 4.47 0 0 1-.777.175 6.354 6.354 0 0 1-.798.057 8.454 8.454 0 0 1-.769-.028 10.557 10.557 0 0 1-1.748-.294s-1.1 5.972-3.301 9.43l-2.2 3.459 1.729 1.886s5.187-5.502 7.23-4.716c2.043.786 3.615 1.1 3.615 1.1Z" fill="#FEAC7C"/><path d="M22.053 44.79S57.955 6.269 55.287 8.158c-2.667 1.89-29.902 28.583-33.234 36.632ZM22.682 51.156S63.734 11.27 63.512 10.38c-.222-.89-29.564 28.23-32.454 31.12-2.89 2.89-8.376 9.655-8.376 9.655Z" fill="#CF4294"/><path d="M47.579 8.522s.132-1.906.688-1.827c.556.08 2.33.45 3.31.291.98-.159 2.489 1.086 3.256 1.589.768.503 3.92 3.786 4.74 5.084.82 1.297.715 2.86 2.012 3.706 1.297.848 2.568 1.933 2.621 2.198.053.265-.82.927-.82.927s-3.68-3.39-5.799-5.56c-2.118-2.172-2.754-3.495-5.613-4.687-2.86-1.191-4.395-1.721-4.395-1.721Z" fill="#fff"/><path d="M46.466 8.996c.3-.637.599-1.31 1.61-.861 1.01.449 1.46-.15 2.808.262 1.348.412 4.643 1.46 5.018 2.246.374.787 1.235 1.498 2.62 3.22 1.386 1.723 1.803 3.86 4.045 5.206.749.449 1.573 1.422 1.123 1.722-.45.3-.486 1.16-.786 1.46-.3.3-2.734 1.273-3.932-1.01-1.198-2.285-1.123-4.082-3.931-6.778-2.809-2.696-8.575-5.467-8.575-5.467Z" fill="#E32618"/><path d="M43.562 13.826s2.111-2.445 3.223-.944c1.111 1.5 8.588 5.637 9.947 9.558 1.267 3.657-1.664 3.758-1.056 4.557 0 0 1.779 1.278 2-.055.223-1.334 1.168-1.89 1.835-1.945.667-.056-.5-.5.944-1.334 1.445-.834 2.208-.813 1.318-2.591-.889-1.779-.873.257-2.151-2.244-1.278-2.5-2.334-4.89-4.28-6.446-1.944-1.556-6.223-2.501-7.724-3.28-1.5-.777-2.167-1.11-2.167 0 0 1.112-.89 1.001-1.278 1.39-.39.39-1.612 2-.611 3.334Z" fill="#FFC517"/><path d="M45.729 10.492c.667.111 5.252 2.918 7.14 5.252 1.89 2.334.668-.14-.944-1.89-1.611-1.75-3.556-2.584-4.223-2.917-.667-.334-1.973-.445-1.973-.445ZM59.01 23.44c-.388-1.194-.972-1.722-1.917-3.39-.944-1.667-2.028-3.084-2.028-2.667 0 .417 2.14 3.807 2.584 4.696.445.89 1.362 1.361 1.362 1.361Z" fill="#FFAC17"/><path d="m8.106 68.41-.08-2.24s1.949.35 2.828.124c.88-.226 2.362-.503 4.648-.528 2.286-.025 8.415-.276 13.766-.452 5.35-.176 8.214-.301 9.872-.377 1.658-.075 12.905-.298 12.905-.298s-8.835-2.34-9.488-2.39c-.653-.05-7.989-.854-9.345-1.055-1.357-.2-4.823-.954-4.924-1.155-.1-.201-.804-2.412 2.563-3.517 3.366-1.105 4.42-2.06 7.486-2.362 3.064-.301 3.416-.401 7.837-.602 4.422-.202 7.537-.101 9.596-.453 2.06-.351 4.321-.05 4.371-1.005.05-.954-5.275-7.285-6.631-9.093-1.357-1.809-1.759-2.965-1.256-3.417.502-.452 3.416-1.608 4.17-2.562.753-.955 3.014-3.919 3.617-5.225.603-1.306 2.412-3.819 2.412-3.819l3.868 2.261s-2.9 3.466-4.02 4.22c-1.117.755-4.42 4.824-5.124 5.678-.703.854-1.909 1.457-1.306 2.562.603 1.106 2.813 3.668 4.02 5.527 1.205 1.859 3.49 4.915 2.708 6.123-.781 1.208-1.492 1.74-1.918 1.918-.426.178-13.216.285-14.424.285-1.208 0-3.481.07-6.146.497-2.664.426-6.252 1.03-6.75 1.35-.497.32 1.492.604 4.512.924 3.02.32 19.824 3.801 20.748 4.512.923.71 1.634.994 1.705 1.776.07.781-2.203 1.67-4.867 1.812-2.665.142-20.712.213-24.3.142-3.589-.071-23.053.838-23.053.838Z" fill="#fff"/><path d="M55.885 38.972c-1.776 1.066-2.238 1.137-2.238 1.67 0 .533 2.984-.178 2.238-1.67ZM34.356 57.233c-.817.106-2.274.39-2.913 1.279-.64.888 1.74 1.314 2.38 1.314.64 0 4.05.39 3.73.284-.32-.106-4.334-.959-4.618-1.208-.284-.248.142-1.634 1.421-1.67ZM52.045 64.639c2.561.339 3.023.658 4.621.836 1.6.178 3.411.64.818.604-2.594-.036-3.589.035-5.436 0-1.847-.036-3.304 0-4.085-.107-.782-.106 4.082-1.333 4.082-1.333Z" fill="#A89194"/></svg><svg fill="none" viewBox="0 0 20 21" id="sun" xmlns="http://www.w3.org/2000/svg"><g clip-path="url(#aua)"><path d="M1.957 11.152H.652a.652.652 0 1 1 0-1.304h1.305a.652.652 0 1 1 0 1.304Z" fill="#FFE14D"/><path d="M19.348 11.152h-1.305a.652.652 0 1 1 0-1.304h1.305a.652.652 0 0 1 0 1.304Z" fill="#FC3"/><path d="M1.905 15.826a.652.652 0 0 1-.327-1.217l1.13-.652a.652.652 0 1 1 .652 1.13l-1.13.652a.649.649 0 0 1-.325.087Z" fill="#FFE14D"/><path d="M16.966 7.13a.652.652 0 0 1-.326-1.216l1.13-.653a.652.652 0 1 1 .651 1.13l-1.13.652a.648.648 0 0 1-.325.088Z" fill="#FC3"/><path d="M5.325 19.248a.652.652 0 0 1-.564-.978l.653-1.13a.652.652 0 1 1 1.129.652l-.652 1.13a.652.652 0 0 1-.566.326Z" fill="#FFE14D"/><path d="M14.021 4.187a.652.652 0 0 1-.564-.978l.652-1.13a.652.652 0 0 1 1.13.652l-.653 1.13a.652.652 0 0 1-.565.326ZM14.675 19.248a.652.652 0 0 1-.566-.326l-.652-1.13a.652.652 0 1 1 1.13-.652l.652 1.13a.652.652 0 0 1-.564.978Z" fill="#FC3"/><path d="M5.979 4.187a.652.652 0 0 1-.565-.327L4.76 2.73a.652.652 0 1 1 1.13-.651l.652 1.13a.652.652 0 0 1-.564.978Z" fill="#FFE14D"/><path d="M18.095 15.826a.647.647 0 0 1-.326-.087l-1.13-.653a.652.652 0 1 1 .653-1.129l1.13.652a.652.652 0 0 1-.327 1.217Z" fill="#FC3"/><path d="M3.034 7.13a.647.647 0 0 1-.326-.087l-1.13-.652a.652.652 0 1 1 .653-1.13l1.13.653a.652.652 0 0 1-.327 1.217Z" fill="#FFE14D"/><path d="M10 16.587A6.094 6.094 0 0 1 3.913 10.5 6.094 6.094 0 0 1 10 4.413a6.094 6.094 0 0 1 6.087 6.087A6.094 6.094 0 0 1 10 16.587Z" fill="#FFC033"/><path d="M16.087 10.5A6.094 6.094 0 0 0 10 4.413v12.174a6.094 6.094 0 0 0 6.087-6.087Z" fill="#F9A926"/><path d="M10 3.109a.652.652 0 0 1-.652-.652V1.152a.652.652 0 1 1 1.304 0v1.305c0 .36-.292.652-.652.652Z" fill="#FFE14D"/><path d="M10.652 2.457V1.152A.652.652 0 0 0 10 .5v2.609c.36 0 .652-.292.652-.652Z" fill="#FC3"/><path d="M10 20.5a.652.652 0 0 1-.652-.652v-1.304a.652.652 0 1 1 1.304 0v1.304c0 .36-.292.652-.652.652Z" fill="#FFE14D"/><path d="M10.652 19.848v-1.304A.652.652 0 0 0 10 17.89v2.61c.36 0 .652-.293.652-.653Z" fill="#FC3"/></g><defs><clipPath id="aua"><path fill="#fff" transform="translate(0 .5)" d="M0 0h20v20H0z"/></clipPath></defs></svg><svg fill="none" viewBox="0 0 17 15" id="tg" xmlns="http://www.w3.org/2000/svg"><path d="m1.147 6.8 3.679 1.37 1.434 4.614c.062.312.436.375.685.188l2.058-1.684c.187-.187.499-.187.748 0l3.679 2.681c.249.187.623.063.685-.25L16.86.628c.062-.312-.25-.624-.562-.499l-15.15 5.86c-.374.125-.374.687 0 .811Zm4.926.685 7.232-4.427c.125-.062.25.125.125.187l-5.923 5.55c-.187.186-.374.436-.374.748l-.188 1.496c0 .187-.311.25-.374 0l-.748-2.743c-.187-.312-.062-.686.25-.81Z" fill="#2F89CE"/></svg><svg fill="none" viewBox="0 0 84 84" id="top-any" xmlns="http://www.w3.org/2000/svg"><g clip-path="url(#awa)"><path d="M45.751 9.084c1.601-1.371 4.08-.707 4.781 1.281l5.955 16.886a3 3 0 0 0 1.265 1.562l15.278 9.335c1.8 1.1 1.933 3.662.26 4.943L59.07 53.97a3 3 0 0 0-1.095 1.687l-4.157 17.415c-.489 2.05-2.885 2.97-4.62 1.774l-14.743-10.16a3 3 0 0 0-1.941-.521l-17.848 1.428c-2.101.168-3.716-1.826-3.115-3.846l5.108-17.16a3 3 0 0 0-.105-2.008L9.68 26.047c-.81-1.947.588-4.099 2.696-4.151l17.899-.445a3 3 0 0 0 1.877-.72l13.6-11.647Z" fill="url(#awb)"/><path d="m5.987 27.582 3.693-1.535-3.693 1.535 6.737 16.205-5.007 16.82c-1.403 4.714 2.365 9.367 7.268 8.975l17.493-1.4 14.45 9.959c4.05 2.79 9.64.645 10.781-4.139l4.074-17.07L75.72 46.267c3.906-2.989 3.593-8.968-.604-11.532l-14.975-9.15-5.837-16.55c-1.635-4.639-7.419-6.188-11.154-2.99L29.82 17.462l-17.544.436c-4.917.122-8.178 5.144-6.29 9.685Zm54.272-1.662Z" stroke="url(#awc)" stroke-opacity=".2" stroke-width="8"/></g><defs><linearGradient id="awb" x1="4.274" y1="3.291" x2="67.303" y2=".266" gradientUnits="userSpaceOnUse"><stop stop-color="#AA429E"/><stop offset="1" stop-color="#8C2380"/></linearGradient><linearGradient id="awc" x1="4.274" y1="3.291" x2="67.303" y2=".266" gradientUnits="userSpaceOnUse"><stop stop-color="#AA429E"/><stop offset="1" stop-color="#8C2380"/></linearGradient><clipPath id="awa"><path fill="#fff" transform="translate(0 .001)" d="M0 0h84v84H0z"/></clipPath></defs></svg><svg fill="none" viewBox="0 0 97 84" id="top1" xmlns="http://www.w3.org/2000/svg"><g clip-path="url(#axa)"><path d="M62.351 75.989 8.386 61.47a2 2 0 0 1-1.479-1.861L5.354 14.966c-.03-.88 1.008-1.366 1.665-.781l17.387 15.49 25.432-16.884a1 1 0 0 1 1.454.399l13.155 27.258 22.813-4.675c.862-.177 1.515.766 1.047 1.51L64.566 75.122a2 2 0 0 1-2.214.868Z" fill="#FFBF5E"/><path d="M65.09 79.801 4.105 63.394a1 1 0 0 1-.74-.953L2.69 8.091c-.011-.886 1.05-1.347 1.69-.736l19.025 18.141L51.98 4.806a1 1 0 0 1 1.504.412L67.41 37.336l25.56-6.147c.86-.207 1.546.724 1.092 1.485L66.208 79.348a1 1 0 0 1-1.118.453Z" stroke="#FFBF5E" stroke-dasharray="5 5"/><path d="M35.033 55.913 40.15 36.81l2.327 3.803-6.83-1.83 1.473-5.502 11.004 2.949-5.797 21.636-7.295-1.954Z" fill="#fff"/></g><defs><clipPath id="axa"><path fill="#fff" transform="translate(.605)" d="M0 0h96v84H0z"/></clipPath></defs></svg><svg fill="none" viewBox="0 0 40 40" id="vk" xmlns="http://www.w3.org/2000/svg"><circle cx="20" cy="20" r="20" fill="#7294C7"/><path d="M29.806 25.115c0-.083-.083-.083-.083-.166-.332-.664-1.08-1.494-2.075-2.407-.499-.416-.748-.748-.914-.914-.249-.332-.249-.58-.166-.913.083-.249.415-.664.996-1.411.333-.415.499-.664.748-.914 1.245-1.66 1.826-2.74 1.66-3.238l-.083-.082c-.083-.084-.166-.167-.332-.167-.166-.083-.415-.083-.664 0h-3.736l-.083.083c-.083.083-.083.083-.083.166-.332.914-.747 1.661-1.163 2.491-.249.415-.498.83-.747 1.162-.249.333-.415.582-.58.748-.167.166-.333.249-.416.415-.083.083-.249.166-.249.083-.083 0-.166 0-.166-.083l-.25-.25c-.082-.082-.082-.248-.165-.414v-4.151c0-.084-.083-.25-.083-.333l-.25-.249c-.082-.083-.248-.083-.331-.166a7.448 7.448 0 0 0-1.495-.166c-1.328 0-2.241.083-2.573.25-.166.082-.333.165-.416.331-.166.166-.166.25-.083.25.415.082.748.248.914.498l.083.166c.083.083.083.249.166.498s.083.498.083.83v1.328c0 .415-.083.665-.083.914s-.083.415-.166.498c-.083.166-.083.249-.166.249 0 0 0 .083-.083.083s-.166.083-.332.083c-.084 0-.25-.083-.333-.166a1 1 0 0 1-.415-.415c-.166-.166-.332-.415-.498-.747-.166-.333-.415-.665-.581-1.163l-.166-.332a11.768 11.768 0 0 1-.415-.913c-.166-.415-.332-.747-.498-1.162a1.147 1.147 0 0 0-.25-.333h-.082s-.083-.083-.166-.083-.166-.083-.25-.083H9.799c-.332 0-.498.083-.582.166l-.083.083v.166c0 .084 0 .167.083.333.416.996.914 1.992 1.412 2.988.498.914.996 1.744 1.328 2.325.415.581.747 1.162 1.163 1.66.415.499.664.83.747.997l.332.332.249.249c.166.166.415.415.747.664.332.25.747.498 1.162.747.416.25.914.415 1.412.581.581.167 1.08.25 1.577.167h1.246c.249 0 .415-.083.58-.25l.084-.082c0-.084.083-.084.083-.167v-.332c0-.332 0-.58.083-.83.083-.249.083-.415.166-.581.083-.166.166-.25.249-.332l.166-.166h.083c.166-.083.415 0 .581.166.25.166.498.415.664.664.166.25.416.498.748.83.332.332.58.581.747.665l.249.166c.166.082.332.166.581.249.25.083.415.083.581.083l2.823-.083c.249 0 .498-.083.664-.166.166-.083.25-.166.25-.333v-.332c-.167-.166-.167-.249-.167-.332Z" fill="#fff"/></svg><svg fill="none" viewBox="0 0 18 18" id="wa" xmlns="http://www.w3.org/2000/svg"><path d="M15.008 3.15A8.342 8.342 0 0 0 9.096.7C4.472.7.726 4.433.726 9.042c0 1.458.409 2.916 1.111 4.141L.667 17.5l4.448-1.167a8.558 8.558 0 0 0 3.981.992c4.624 0 8.37-3.733 8.37-8.342-.058-2.158-.877-4.258-2.458-5.833Zm-1.873 8.867c-.176.466-.995.933-1.405.991-.351.059-.82.059-1.288-.058-.292-.117-.702-.233-1.17-.467-2.108-.875-3.454-2.975-3.571-3.15-.117-.116-.878-1.108-.878-2.158 0-1.05.527-1.517.702-1.75.176-.233.41-.233.586-.233h.41c.116 0 .292-.059.468.35.175.408.585 1.458.644 1.516a.37.37 0 0 1 0 .35c-.059.117-.118.234-.235.35-.117.117-.234.292-.292.35-.117.117-.234.234-.117.409.117.233.526.875 1.17 1.458.82.7 1.464.933 1.698 1.05.234.117.351.058.468-.058.117-.117.527-.584.644-.817.117-.233.293-.175.468-.117.176.059 1.23.584 1.405.7.234.117.351.175.41.234.059.175.059.583-.117 1.05Z" fill="#48C95F"/></svg><svg fill="none" viewBox="0 0 40 40" id="youtube" xmlns="http://www.w3.org/2000/svg"><circle cx="20" cy="20" r="20" fill="#F40000"/><path d="M28.713 18.913c0-.388-.065-.84-.065-1.357a88.402 88.402 0 0 0-.194-1.487c-.129-.517-.323-.905-.71-1.229-.324-.323-.776-.517-1.229-.581-1.487-.194-3.685-.259-6.658-.259-2.974 0-5.237.065-6.659.259-.453.064-.905.258-1.228.581a2.58 2.58 0 0 0-.711 1.229c-.13.452-.194.905-.194 1.487-.065.517-.065.97-.065 1.357v2.974c0 .388.065.84.065 1.357.064.518.129 1.035.194 1.487.129.517.323.905.71 1.229.324.323.777.517 1.229.581 1.487.194 3.685.259 6.659.259 2.973 0 5.236-.065 6.658-.259.453-.064.905-.258 1.228-.581.324-.324.582-.712.712-1.229.129-.452.194-.905.194-1.487.064-.517.064-.97.064-1.357v-2.974Zm-5.43 2.004-5.107 3.168a.494.494 0 0 1-.323.13c-.13 0-.194 0-.324-.066a.679.679 0 0 1-.323-.581v-6.4c0-.259.13-.453.323-.582a.587.587 0 0 1 .647 0l5.107 3.168c.194.129.323.323.323.517s-.13.517-.323.646Z" fill="#fff"/></svg></svg>